<?xml version="1.0" encoding="iso-8859-1"?>
<!-- Uploaded to: SVG Repo, www.svgrepo.com, Generator: SVG Repo Mixer Tools -->
<svg fill="#000000" height="800px" width="800px" version="1.1" id="Layer_1" xmlns="http://www.w3.org/2000/svg" xmlns:xlink="http://www.w3.org/1999/xlink" 
	 viewBox="0 0 512 512" xml:space="preserve">
<g>
	<g>
		<path d="M478.564,203.204c1.623-56.334-43.79-103.03-100.129-103.03c-32.24,0-62.391,15.899-81.02,41.672
			c-11.176-5.453-23.316-8.281-35.85-8.281c-40.313,0-74.042,28.725-81.799,66.783H50.087C22.469,200.348,0,222.817,0,250.435
			c0,21.765,13.959,40.323,33.391,47.215V384c0,40.314,28.725,74.042,66.783,81.799v18.375c0,9.22,7.475,16.696,16.696,16.696
			s16.696-7.475,16.696-16.696v-16.696h244.87v16.696c0,9.22,7.475,16.696,16.696,16.696s16.696-7.475,16.696-16.696v-18.375
			c38.057-7.756,66.783-41.484,66.783-81.799v-86.35C498.041,290.758,512,272.2,512,250.435
			C512,228.653,498.019,210.084,478.564,203.204z M261.565,166.957c11.174,0,21.909,3.858,31.043,11.155
			c8.434,6.738,20.956,3.811,25.537-5.954c10.998-23.444,34.664-38.593,60.29-38.593c36.824,0,66.783,29.959,66.783,66.783H214.35
			C221.242,180.915,239.8,166.957,261.565,166.957z M445.217,384c0,27.618-22.469,50.087-50.087,50.087H116.87
			c-27.618,0-50.087-22.469-50.087-50.087v-83.478h378.435V384z M461.913,267.13H50.087c-9.206,0-16.696-7.49-16.696-16.696
			c0-9.206,7.49-16.696,16.696-16.696c4.358,0,411.539,0,411.826,0c9.206,0,16.696,7.49,16.696,16.696
			C478.609,259.641,471.119,267.13,461.913,267.13z"/>
	</g>
</g>
<g>
	<g>
		<path d="M272.696,11.13c-27.618,0-50.087,22.469-50.087,50.087s22.469,50.087,50.087,50.087c27.618,0,50.087-22.469,50.087-50.087
			C322.783,33.599,300.314,11.13,272.696,11.13z M272.696,77.913c-9.206,0-16.696-7.49-16.696-16.696s7.49-16.696,16.696-16.696
			c9.206,0,16.696,7.49,16.696,16.696S281.902,77.913,272.696,77.913z"/>
	</g>
</g>
<g>
	<g>
		<circle cx="183.652" cy="105.739" r="16.696"/>
	</g>
</g>
<g>
	<g>
		<circle cx="372.87" cy="50.087" r="16.696"/>
	</g>
</g>
</svg>