<svg id="Layer_1" data-name="Layer 1" xmlns="http://www.w3.org/2000/svg" viewBox="0 0 64 64"><title>boiler</title><path d="M46,52H18a5,5,0,0,1-5-5V9a5,5,0,0,1,5-5H46a5,5,0,0,1,5,5V47A5,5,0,0,1,46,52ZM18,6a3,3,0,0,0-3,3V47a3,3,0,0,0,3,3H46a3,3,0,0,0,3-3V9a3,3,0,0,0-3-3Z" id="id_101" style="fill: rgb(255, 255, 255);"></path><path d="M43,56H37a1,1,0,0,1-1-1V51a1,1,0,0,1,1-1h6a1,1,0,0,1,1,1v4A1,1,0,0,1,43,56Zm-5-2h4V52H38Z" id="id_102" style="fill: rgb(255, 255, 255);"></path><path d="M27,56H21a1,1,0,0,1-1-1V51a1,1,0,0,1,1-1h6a1,1,0,0,1,1,1v4A1,1,0,0,1,27,56Zm-5-2h4V52H22Z" id="id_103" style="fill: rgb(255, 255, 255);"></path><path d="M50,62H42a3,3,0,0,1-3-3V55a1,1,0,0,1,2,0v4a1,1,0,0,0,1,1h8a1,1,0,0,1,0,2Z" id="id_104" style="fill: rgb(255, 255, 255);"></path><path d="M22,62H14a1,1,0,0,1,0-2h8a1,1,0,0,0,1-1V55a1,1,0,0,1,2,0v4A3,3,0,0,1,22,62Z" id="id_105" style="fill: rgb(255, 255, 255);"></path><path d="M32,44a7,7,0,1,1,7-7A7,7,0,0,1,32,44Zm0-12a5,5,0,1,0,5,5A5,5,0,0,0,32,32Z" id="id_106" style="fill: rgb(255, 255, 255);"></path><path d="M42,18H22a3,3,0,0,1,0-6H42a3,3,0,0,1,0,6ZM22,14a1,1,0,0,0,0,2H42a1,1,0,0,0,0-2Z" id="id_107" style="fill: rgb(255, 255, 255);"></path></svg>