<svg xmlns="http://www.w3.org/2000/svg" viewBox="0 0 64 64"><g id="Data"><path d="M52.65,10.07H44.54V8a1,1,0,0,0-1-1h-3.1V4a1,1,0,0,0-1-1H24.56a1,1,0,0,0-1,1V7h-3.1a1,1,0,0,0-1,1v2.08H11.35a1,1,0,0,0-1,1V60a1,1,0,0,0,1,1h41.3a1,1,0,0,0,1-1V11.07A1,1,0,0,0,52.65,10.07ZM38.44,5V9.17H25.56V8h0V5ZM23.56,9v1.18a1,1,0,0,0,1,1H39.44a1,1,0,0,0,1-1V9h2.1v2.08h0V15H21.46V11.07h0V9Zm-4.1,3.08V16a1,1,0,0,0,1,1H43.54a1,1,0,0,0,1-1V12.07H46.7V53.52H17.3V12.07ZM51.65,59H12.35V12.07h3V54.52a1,1,0,0,0,1,1H47.7a1,1,0,0,0,1-1V12.07h2.95Z" id="id_115"></path><path d="M21.36,22.58h10a1,1,0,0,0,0-2h-10a1,1,0,0,0,0,2Z" id="id_116"></path><path d="M35.76,22.58h6.88a1,1,0,0,0,0-2H35.76a1,1,0,0,0,0,2Z" id="id_117"></path><path d="M21.36,26.44H25.5a1,1,0,0,0,0-2H21.36a1,1,0,0,0,0,2Z" id="id_118"></path><path d="M43.64,25.44a1,1,0,0,0-1-1H29.87a1,1,0,0,0,0,2H42.64A1,1,0,0,0,43.64,25.44Z" id="id_119"></path><path d="M21.36,30.3h10a1,1,0,0,0,0-2h-10a1,1,0,0,0,0,2Z" id="id_120"></path><path d="M35.76,30.3h6.88a1,1,0,0,0,0-2H35.76a1,1,0,0,0,0,2Z" id="id_121"></path><path d="M21.36,34.17H25.5a1,1,0,0,0,0-2H21.36a1,1,0,0,0,0,2Z" id="id_122"></path><path d="M28.87,33.17a1,1,0,0,0,1,1H42.64a1,1,0,0,0,0-2H29.87A1,1,0,0,0,28.87,33.17Z" id="id_123"></path><path d="M21.36,38h10a1,1,0,0,0,0-2h-10a1,1,0,0,0,0,2Z" id="id_124"></path><path d="M42.64,36H35.76a1,1,0,1,0,0,2h6.88a1,1,0,0,0,0-2Z" id="id_125" style="fill: rgb(0, 0, 0);"></path><path d="M29.64,45.14H25.39a1,1,0,0,0-1,1v4.94a1,1,0,0,0,1,1h4.25a1,1,0,0,0,1-1V46.14A1,1,0,0,0,29.64,45.14Zm-1,4.94H26.39V47.14h2.25Z" id="id_126"></path><path d="M37.11,43H32.86a1,1,0,0,0-1,1v7.06a1,1,0,0,0,1,1h4.25a1,1,0,0,0,1-1V44A1,1,0,0,0,37.11,43Zm-1,7.06H33.86V45h2.25Z" id="id_127" style="fill: rgb(0, 0, 0);"></path><path d="M39.34,41.83v9.25a1,1,0,0,0,1,1h4.25a1,1,0,0,0,1-1V41.83a1,1,0,0,0-1-1H40.34A1,1,0,0,0,39.34,41.83Zm2,1h2.25v7.25H41.34Z" id="id_128" style="fill: rgb(0, 0, 0);"></path></g></svg>