<?xml version="1.0" encoding="UTF-8" standalone="no"?> <svg xmlns="http://www.w3.org/2000/svg" viewBox="0 0 64 64"><title>cleaning-clean-tap-water-wash-toilet</title><g id="_20-tap" data-name="20-tap"><path d="M8.5,59A4.505,4.505,0,0,1,4,54.5a4.565,4.565,0,0,1,.557-2.225L7.624,46.7a1.039,1.039,0,0,1,1.752,0l3.067,5.576A4.544,4.544,0,0,1,8.5,59Zm0-9.743L6.309,53.239A2.512,2.512,0,1,0,11,54.5a2.564,2.564,0,0,0-.309-1.26Z"/><path d="M61,58H58V24a1,1,0,0,0-1-1H54V18a9.649,9.649,0,0,0-6.385-9.228L22.444.178a3.246,3.246,0,0,0-2.977.443A3.56,3.56,0,0,0,18,3.521a3.509,3.509,0,0,0,2.3,3.332l18.573,6.534A4.746,4.746,0,0,1,41.891,17H41a1,1,0,0,0-1,1v5H37a1,1,0,0,0-1,1v5H10a7.008,7.008,0,0,0-7,7v6a1,1,0,0,0,1,1H14a1,1,0,0,0,1-1V37H36V58H33a1,1,0,0,0-1,1v4a1,1,0,0,0,1,1H61a1,1,0,0,0,1-1V59A1,1,0,0,0,61,58ZM39.537,11.5,20.963,4.966A1.506,1.506,0,0,1,20,3.521a1.537,1.537,0,0,1,.63-1.273A1.267,1.267,0,0,1,21.8,2.07l25.171,8.595A7.575,7.575,0,0,1,51.939,17H43.931A6.782,6.782,0,0,0,39.537,11.5ZM42,19H52v4H42ZM13,41H5V37h8Zm25-4h2V35H5.1A5.008,5.008,0,0,1,10,31H42V29H38V25H56V58H38ZM60,62H34V60H60Z"/><path d="M54,32H52V29H48V27h5a1,1,0,0,1,1,1Z"/><rect x="52" y="34" width="2" height="22"/></g></svg>