<?xml version="1.0" encoding="UTF-8" standalone="no"?> <svg id="Layer_1" data-name="Layer 1" xmlns="http://www.w3.org/2000/svg" viewBox="0 0 64 64"><defs><style>.cls-1{fill:#010101;}</style></defs><polygon class="cls-1" points="24.208 56.134 24.208 56.131 24.208 56.134 24.208 56.134"/><path class="cls-1" d="M16.478,50.514l.019.006.036.009a.593.593,0,0,0-.059-.017Z"/><path class="cls-1" d="M55.292,14.159a.986.986,0,0,0-1.377,0L48.32,19.817q-1,1.009-1.994,2.018c-.182.184-.37.364-.547.553a2.312,2.312,0,0,0-.639,1.56c-.026.89,0,1.785,0,2.675V42.658c0,.306,0,.611,0,.916v.047c0,.152-.006.3-.018.454-.005.067-.012.134-.02.2,0,.018-.037.218-.043.246a6.971,6.971,0,0,1-.268.92l-.015.046-.02.04c-.037.077-.072.155-.111.232a5.94,5.94,0,0,1-.3.518c-.046.071-.094.142-.143.211-.009.013-.068.088-.091.118-.077.095-.156.188-.239.277q-.174.188-.363.358c-.063.057-.129.11-.192.166l-.046.038-.094.069a5.918,5.918,0,0,1-.807.48c-.056.028-.114.053-.172.079l-.149.059a5.664,5.664,0,0,1-.582.179c-.153.039-.308.068-.463.094l-.151.021q-.135.012-.27.018a5.754,5.754,0,0,1-.955-.036l-.131-.021c-.087-.017-.173-.035-.259-.055q-.255-.06-.5-.142c-.083-.028-.163-.059-.245-.088l-.046-.015-.039-.02c-.155-.074-.309-.148-.458-.233s-.294-.175-.434-.272c-.052-.035-.1-.073-.153-.11l-.122-.1a7.083,7.083,0,0,1-.714-.725.369.369,0,0,0-.033-.034.4.4,0,0,0-.023-.037c-.05-.07-.1-.138-.147-.209q-.143-.213-.265-.438c-.074-.135-.14-.273-.2-.414-.015-.04-.049-.122-.054-.136-.04-.108-.076-.218-.11-.329-.041-.14-.078-.281-.109-.424-.019-.086-.033-.173-.051-.259l-.011-.051,0-.043c-.019-.213-.033-.425-.034-.64V15.7a10.291,10.291,0,0,0-1.184-5.02A9.607,9.607,0,0,0,19.1,8.513a9.73,9.73,0,0,0-2.315,3.736,10.586,10.586,0,0,0-.5,3.445V17a4.935,4.935,0,0,0-2.147.2,1.891,1.891,0,0,0-1.019,1.708c0,.311,0,.622,0,.933v1.9c-.208.108-.421.2-.619.329a9.025,9.025,0,0,0-4.187,7.467c-.007.549,0,1.1,0,1.647V55.2c0,.256,0,.512,0,.767a2.431,2.431,0,0,0,1.61,2.337,3.88,3.88,0,0,0,1.332.129H23.216a3.61,3.61,0,0,0,1.564-.227,2.4,2.4,0,0,0,1.377-2.239c.008-1.476,0-2.953,0-4.429a.227.227,0,0,0,.006-.025v-18.7a.227.227,0,0,0-.006-.025V29.641a9.039,9.039,0,0,0-4.111-7.514c-.223-.145-.462-.259-.7-.381V18.857A1.892,1.892,0,0,0,19.5,17c-.177-.006-.356,0-.534,0h-.729V15.6c0-.435.014-.865.056-1.3l0-.047.009-.048c.011-.058.019-.116.03-.175.03-.173.067-.346.108-.517a8.539,8.539,0,0,1,.339-1.079c.006-.017.069-.165.065-.159l.038-.084c.071-.156.148-.31.228-.461a8.607,8.607,0,0,1,.584-.943l.11-.15c.013-.015.089-.113.1-.125.089-.11.182-.217.277-.322a8.688,8.688,0,0,1,.791-.768c.065-.056.131-.109.2-.163a.4.4,0,0,0,.035-.031.386.386,0,0,0,.037-.025c.116-.083.23-.166.348-.245a8.5,8.5,0,0,1,.961-.556c.077-.038.155-.075.233-.111l.137-.06c.116-.047.232-.092.35-.134A8.584,8.584,0,0,1,24.361,7.8c.155-.032.311-.059.468-.083L24.98,7.7c.074-.008.149-.015.223-.021a8.89,8.89,0,0,1,1.045-.019c.18.008.36.021.54.04.017,0,.153.02.169.021l.189.031A8.559,8.559,0,0,1,28.169,8c.166.051.33.108.492.169.06.022.118.046.177.069.02.01.132.058.148.065a8.64,8.64,0,0,1,.906.483c.145.089.288.183.428.28l.207.149c.027.02.025.017.037.026s.008.008.035.03a10.176,10.176,0,0,1,.754.684c.119.121.235.246.346.374q.084.1.165.2l.077.1a8.3,8.3,0,0,1,1,1.707c.018.044.045.106.049.117.031.081.061.162.09.244q.087.246.159.5a10.062,10.062,0,0,1,.227,1.03l.009.048,0,.047c.009.089.019.178.026.267.016.181.025.362.029.543,0,.092,0,.184,0,.276q0,3.529,0,7.058v20.6a7.475,7.475,0,0,0,1.106,4.275,6.776,6.776,0,0,0,12.446-3.743c0-.9,0-1.807,0-2.711V30.9a4.711,4.711,0,0,0,2.424-.508,3.847,3.847,0,0,0,1.862-3.419V19.5l2.965-3,.954-.965A.99.99,0,0,0,55.292,14.159ZM15.013,18.934,15,18.949l.017-.015Zm-.022.016h-.014a.044.044,0,0,1,.029-.017Zm.058-.011v0h0Zm-.072.012h.009c-.007,0-.017.011-.017,0Zm9.23,37.222h0C24.206,56.208,24.205,56.215,24.207,56.173Zm-7.58-5.631c-.031,0-.08-.01-.084-.01l-.01,0s0,0-.039-.006c0,0-.01-.007-.016-.009s-.017-.006,0,0a.923.923,0,0,1-.082-.047l-.007-.006c-.038-.041-.079-.077-.114-.122.131.167-.056-.22.006-.009a.582.582,0,0,1-.034-.122v0a.3.3,0,0,0,0-.047c0-.012,0-.024,0-.035,0-.161,0-.322,0-.482V34.553c0-.124,0-.248,0-.373,0-.227,0,.056,0-.053a.353.353,0,0,1,.03-.111L16.281,34s.015-.029.03-.053l.074-.078,0,0,.09-.05a.368.368,0,0,0,.08-.02.531.531,0,0,1,.092-.009c.712.019,1.427,0,2.139,0H24.21V50.542H16.627Zm-.234-.076c.11.064.041.037,0,0Zm-.121-16.449c-.049.164-.018.035,0,0Zm.121-.153c.1-.1.038-.028,0,0Zm5.4-9.5q.2.177.391.367c.105.106.207.214.306.326.06.067.118.135.175.2-.006-.006.057.071.09.112s.092.123.087.116c.052.073.1.146.154.221q.15.224.285.457c.075.13.147.262.214.4.041.081.08.162.118.244l.058.134a8.053,8.053,0,0,1,.284.831,7.445,7.445,0,0,1,.2.969c0,.035.009.078.011.1.008.078.015.157.021.236.013.191.019.382.02.573v2.2H19.382c-.881,0-1.761,0-2.641,0a2.389,2.389,0,0,0-2.446,2.43c-.01,1.679,0,3.358,0,5.036V49.478a2.93,2.93,0,0,0,.713,2.358,2.434,2.434,0,0,0,1.619.654H24.21v3.321c0,.072,0,.144,0,.215v.035c0,.009,0,.039,0,.07,0-.087.007-.027,0,0v.038h0v-.039c0,.007,0,.015-.006.014l-.023.081h0c-.019.035-.041.068-.062.1l0,0a.387.387,0,0,1-.061.06,1.252,1.252,0,0,1-.123.07.272.272,0,0,1-.06.017l-.028.006-.058,0h-.06c-.133,0-.266,0-.4,0H11.569c-.291,0-.585-.013-.876,0a.442.442,0,0,1-.052,0l-.082-.02-.111-.051a.147.147,0,0,0-.03-.012.14.14,0,0,0-.033-.041l-.025-.024a1.22,1.22,0,0,1-.072-.127c.034.024-.034-.287-.025-.063,0-.06,0-.12,0-.18,0-.71,0-1.421,0-2.131V30.333c0-.216,0-.432,0-.648,0-.269.01-.538.036-.806.006-.063.013-.125.02-.188-.024.21.015-.095.018-.112q.039-.23.09-.456a7.875,7.875,0,0,1,.32-1.052c0,.008.034-.086.054-.136s.062-.142.059-.134q.1-.225.222-.444a8.061,8.061,0,0,1,.549-.874c.007-.01.111-.144.109-.143.022-.029.045-.057.068-.085q.171-.206.356-.4a8.134,8.134,0,0,1,.72-.669c.013-.011.247-.189.085-.069l.144-.106c.146-.1.3-.2.449-.3a9.265,9.265,0,0,1,.874-.467l.058-.028.043-.016c.085-.034.169-.067.255-.1q.257-.093.519-.168c.243-.069.522-.133.768-.177.145-.02.289-.043.434-.055h.008q.348-.029.7-.029h.068c.187,0,.374.01.56.024.138.011.275.022.411.042l.038.005c.2.03.4.068.594.117a8.358,8.358,0,0,1,1.051.339l.048.018.053.026c.068.033.137.064.2.1.176.086.348.179.516.277.248.146.485.307.716.476l.116.09C21.658,24.242,21.726,24.3,21.793,24.359Zm-2.368-5.408,0,.021c-.008,0-.009-.012-.011-.021Zm-.119,0h.1v2a10.632,10.632,0,0,0-4.337,0V19.336c0-.118,0-.237,0-.355v-.03h4.241Zm30,8.871-.006.013C49.316,27.8,49.344,27.741,49.306,27.822Zm.119-4.016V26.57c0,.191,0,.382,0,.574q0,.077,0,.153c0,.035,0,.069-.008.1-.019.1-.04.2-.068.291-.016.052-.035.1-.052.154-.033.069-.067.138-.106.2s-.086.138-.132.206c-.031.036-.062.072-.095.107a2.753,2.753,0,0,1-.208.2c-.014.007-.116.085-.152.107-.085.053-.173.1-.262.144l-.021.009-.148.048a2.976,2.976,0,0,1-.29.069c-.05,0-.1.008-.15.01-.074,0-.149,0-.223,0h-.42V24.859c0-.3,0-.6,0-.893v-.04c0-.147.013-.1.093-.185.207-.219.424-.429.636-.644l1.609-1.628Z"/></svg>