<svg id="Layer_1" data-name="Layer 1" xmlns="http://www.w3.org/2000/svg" viewBox="0 0 100 100"><defs><style>.cls-1{fill:#1d1d1b;}</style></defs><path class="cls-1" d="M95.49,4.49h-91A1.51,1.51,0,0,0,3,6V68.41a1.51,1.51,0,0,0,1.51,1.51H33.19a17.19,17.19,0,0,0,4.44,8.29L32.94,89.64a1.5,1.5,0,0,0,1.79,2l5-1.35,2.57,4.44a1.51,1.51,0,0,0,1.3.76h.1a1.51,1.51,0,0,0,1.3-.93l4.57-11.11.48,0,.48,0,4.57,11.11a1.51,1.51,0,0,0,1.29.93h.1a1.5,1.5,0,0,0,1.3-.76l2.58-4.44,4.95,1.35a1.5,1.5,0,0,0,1.79-2l-4.7-11.42a17.2,17.2,0,0,0,4.45-8.3H95.49A1.51,1.51,0,0,0,97,68.41V6A1.51,1.51,0,0,0,95.49,4.49Zm-1.5,10a8.48,8.48,0,0,1-7.49-7H94Zm-81-7a8.48,8.48,0,0,1-6.93,7V7.5ZM6,59.92a8.48,8.48,0,0,1,6.94,7H6ZM43.33,90.6l-1.62-2.8a1.49,1.49,0,0,0-1.7-.7L36.89,88,40,80.28a17.2,17.2,0,0,0,6.37,2.82ZM35.8,66.27A14.2,14.2,0,1,1,50,80.47,14.22,14.22,0,0,1,35.8,66.27ZM60,87.1a1.48,1.48,0,0,0-1.7.7l-1.62,2.8-3.08-7.5A17.2,17.2,0,0,0,60,80.28L63.11,88Zm-10-38A17.23,17.23,0,0,0,32.79,66.27c0,.22,0,.42,0,.64H16a11.51,11.51,0,0,0-10-10V17.49a11.5,11.5,0,0,0,10-10H83.46A11.49,11.49,0,0,0,94,17.55V56.82A11.49,11.49,0,0,0,83.45,66.91H67.18c0-.22,0-.42,0-.64A17.23,17.23,0,0,0,50,49.06ZM86.49,66.91A8.5,8.5,0,0,1,94,59.83v7.08Z" id="id_101" style="fill: rgb(255, 255, 255);"></path><path class="cls-1" d="M31.43,16.49H68.57a1.51,1.51,0,1,0,0-3H31.43a1.51,1.51,0,1,0,0,3Z" id="id_102" style="fill: rgb(255, 255, 255);"></path><path class="cls-1" d="M16.11,32.94H83.89a1.51,1.51,0,0,0,0-3H16.11a1.51,1.51,0,0,0,0,3Z" id="id_103" style="fill: rgb(255, 255, 255);"></path><path class="cls-1" d="M85.39,42.48A1.51,1.51,0,0,0,83.89,41H16.11a1.51,1.51,0,0,0,0,3H83.89A1.5,1.5,0,0,0,85.39,42.48Z" id="id_104" style="fill: rgb(255, 255, 255);"></path><path class="cls-1" d="M56.14,69.18l4-3.86a1.51,1.51,0,0,0-.83-2.57L53.8,62l-2.45-5a1.5,1.5,0,0,0-2.7,0L46.2,62l-5.47.79a1.51,1.51,0,0,0-.83,2.57l4,3.86-.94,5.44a1.54,1.54,0,0,0,.6,1.48,1.52,1.52,0,0,0,1.59.11L50,73.64l4.89,2.57a1.45,1.45,0,0,0,.7.17,1.49,1.49,0,0,0,1.49-1.76Zm-2.67-1.61A1.53,1.53,0,0,0,53,68.9l.55,3.23L50.7,70.61a1.45,1.45,0,0,0-1.4,0l-2.89,1.52L47,68.9a1.53,1.53,0,0,0-.43-1.33l-2.34-2.28,3.23-.47A1.5,1.5,0,0,0,48.55,64L50,61.07,51.45,64a1.5,1.5,0,0,0,1.13.82l3.23.47Z" id="id_105" style="fill: rgb(255, 255, 255);"></path></svg>