<?xml version="1.0" encoding="UTF-8" standalone="no"?> <svg width="64" height="64" viewBox="0 0 64 64" fill="none" xmlns="http://www.w3.org/2000/svg">
<path d="M61 34.63C60.986 34.5649 60.9659 34.5013 60.94 34.44C60.9175 34.3815 60.8907 34.3247 60.86 34.27C60.8188 34.2122 60.7719 34.1586 60.72 34.11C60.6928 34.0742 60.6627 34.0408 60.63 34.01L53.44 28.41L53.33 28.36C53.2766 28.3184 53.2154 28.2878 53.15 28.27C53.0807 28.2557 53.0093 28.2557 52.94 28.27C52.9035 28.2655 52.8665 28.2655 52.83 28.27H46.7L48 17.14C48.0171 17.0004 48.0045 16.8588 47.9632 16.7244C47.9218 16.59 47.8526 16.4658 47.76 16.36C47.6671 16.2484 47.5509 16.1584 47.4197 16.0962C47.2884 16.0341 47.1452 16.0012 47 16H20.18C19.9328 15.9985 19.6938 16.0886 19.5091 16.253C19.3244 16.4174 19.2072 16.6443 19.18 16.89L19 18.5H6.25C5.98478 18.5 5.73043 18.6054 5.54289 18.7929C5.35536 18.9804 5.25 19.2348 5.25 19.5C5.25 19.7652 5.35536 20.0196 5.54289 20.2071C5.73043 20.3947 5.98478 20.5 6.25 20.5H18.77L18.38 23.88H9.15C8.88478 23.88 8.63043 23.9854 8.44289 24.1729C8.25536 24.3604 8.15 24.6148 8.15 24.88C8.15 25.1452 8.25536 25.3996 8.44289 25.5871C8.63043 25.7747 8.88478 25.88 9.15 25.88H18.15L17.76 29.25H4C3.73478 29.25 3.48043 29.3554 3.29289 29.5429C3.10536 29.7304 3 29.9848 3 30.25C3 30.5152 3.10536 30.7696 3.29289 30.9571C3.48043 31.1447 3.73478 31.25 4 31.25H17.53L17.14 34.63H7.75C7.48478 34.63 7.23043 34.7354 7.04289 34.9229C6.85536 35.1104 6.75 35.3648 6.75 35.63C6.75 35.8952 6.85536 36.1496 7.04289 36.3371C7.23043 36.5247 7.48478 36.63 7.75 36.63H15.41C15.2868 36.6925 15.1778 36.7799 15.0901 36.8866C15.0023 36.9933 14.9376 37.117 14.9 37.25L14.19 40H5.25C4.98478 40 4.73043 40.1054 4.54289 40.2929C4.35536 40.4804 4.25 40.7348 4.25 41C4.25 41.2652 4.35536 41.5196 4.54289 41.7071C4.73043 41.8947 4.98478 42 5.25 42H13.67L13.32 43.34C13.2825 43.4876 13.2793 43.6418 13.3105 43.7908C13.3417 43.9399 13.4065 44.0798 13.5 44.2C13.5932 44.321 13.7128 44.4191 13.8497 44.4867C13.9867 44.5543 14.1373 44.5897 14.29 44.59H19.63C19.7407 45.0915 19.9405 45.5691 20.22 46H4C3.73478 46 3.48043 46.1054 3.29289 46.2929C3.10536 46.4804 3 46.7348 3 47C3 47.2652 3.10536 47.5196 3.29289 47.7071C3.48043 47.8947 3.73478 48 4 48H34.69C34.9552 48 35.2096 47.8947 35.3971 47.7071C35.5846 47.5196 35.69 47.2652 35.69 47C35.69 46.7348 35.5846 46.4804 35.3971 46.2929C35.2096 46.1054 34.9552 46 34.69 46H27.56C27.8414 45.5774 28.0415 45.106 28.15 44.61H47C47.1049 45.1007 47.2908 45.5704 47.55 46H39.27C39.0048 46 38.7504 46.1054 38.5629 46.2929C38.3754 46.4804 38.27 46.7348 38.27 47C38.27 47.2652 38.3754 47.5196 38.5629 47.7071C38.7504 47.8947 39.0048 48 39.27 48H51.27C52.2579 47.9967 53.2159 47.6603 53.989 47.0451C54.762 46.43 55.305 45.572 55.53 44.61H58.46C58.6968 44.6139 58.9273 44.5336 59.1104 44.3834C59.2935 44.2333 59.4174 44.023 59.46 43.79L61 35C61.005 34.9535 61.005 34.9066 61 34.86C61.0066 34.7835 61.0066 34.7065 61 34.63ZM45.87 18L43.73 36.5H18.93L21.07 18H45.87ZM16.65 38.5H43.38L43.1 42.59H28.16C27.935 41.6277 27.3912 40.7697 26.6169 40.1555C25.8426 39.5413 24.8833 39.2071 23.895 39.2071C22.9067 39.2071 21.9474 39.5413 21.1731 40.1555C20.3988 40.7697 19.855 41.6277 19.63 42.59H15.63L16.65 38.5ZM21.5 43.59C21.5 42.9562 21.7518 42.3482 22.2 41.9C22.6482 41.4518 23.2561 41.2 23.89 41.2C24.5239 41.2 25.1318 41.4518 25.58 41.9C26.0282 42.3482 26.28 42.9562 26.28 43.59C26.28 44.2239 26.0282 44.8318 25.58 45.28C25.1318 45.7282 24.5239 45.98 23.89 45.98C23.2561 45.98 22.6482 45.7282 22.2 45.28C21.7518 44.8318 21.5 44.2239 21.5 43.59ZM51.23 46C50.7573 46 50.2952 45.8598 49.9022 45.5972C49.5092 45.3346 49.2028 44.9613 49.0219 44.5246C48.841 44.0879 48.7937 43.6074 48.8859 43.1438C48.9781 42.6801 49.2058 42.2543 49.54 41.92C49.8743 41.5858 50.3001 41.3582 50.7637 41.2659C51.2273 41.1737 51.7079 41.2211 52.1446 41.4019C52.5813 41.5828 52.9546 41.8892 53.2172 42.2822C53.4798 42.6752 53.62 43.1373 53.62 43.61C53.6174 44.2431 53.3647 44.8495 52.9171 45.2971C52.4694 45.7447 51.8631 45.9974 51.23 46V46ZM57.58 42.61H55.49C55.265 41.6477 54.7212 40.7897 53.9469 40.1755C53.1726 39.5613 52.2133 39.2271 51.225 39.2271C50.2367 39.2271 49.2774 39.5613 48.5031 40.1755C47.7288 40.7897 47.185 41.6477 46.96 42.61H45.15L46.51 30.2H52.51L58.95 35.2L57.58 42.61Z" fill="black"/>
<path d="M53.7301 35.4H49.8701V32C49.8701 31.7348 49.7648 31.4804 49.5772 31.2929C49.3897 31.1054 49.1353 31 48.8701 31C48.6049 31 48.3505 31.1054 48.163 31.2929C47.9755 31.4804 47.8701 31.7348 47.8701 32V36.4C47.8701 36.6652 47.9755 36.9196 48.163 37.1071C48.3505 37.2946 48.6049 37.4 48.8701 37.4H53.7301C53.9953 37.4 54.2497 37.2946 54.4372 37.1071C54.6248 36.9196 54.7301 36.6652 54.7301 36.4C54.7301 36.1348 54.6248 35.8804 54.4372 35.6929C54.2497 35.5054 53.9953 35.4 53.7301 35.4Z" fill="black"/>
</svg>
