<svg width="50" height="50" viewBox="0 0 50 50" version="1.1" id="SVGRoot" sodipodi:docname="Fast clock.svg" inkscape:version="1.2.2 (732a01da63, 2022-12-09)" inkscape:export-filename="Fast clock.png" inkscape:export-xdpi="960" inkscape:export-ydpi="960" xml:space="preserve" xmlns:inkscape="http://www.inkscape.org/namespaces/inkscape" xmlns:sodipodi="http://sodipodi.sourceforge.net/DTD/sodipodi-0.dtd" xmlns:xlink="http://www.w3.org/1999/xlink" xmlns="http://www.w3.org/2000/svg" xmlns:svg="http://www.w3.org/2000/svg"><sodipodi:namedview id="namedview137" pagecolor="#ffffff" bordercolor="#999999" borderopacity="1" inkscape:showpageshadow="0" inkscape:pageopacity="0" inkscape:pagecheckerboard="0" inkscape:deskcolor="#1e1e1e" inkscape:document-units="px" showgrid="false" inkscape:zoom="5.6568543" inkscape:cx="53.563339" inkscape:cy="17.500893" inkscape:window-width="1366" inkscape:window-height="705" inkscape:window-x="-8" inkscape:window-y="-8" inkscape:window-maximized="1" inkscape:current-layer="layer1" inkscape:lockguides="true"></sodipodi:namedview><defs id="defs132"><linearGradient inkscape:collect="always" id="linearGradient6039"><stop style="stop-color:#000000;stop-opacity:1;" offset="0" id="stop6035"></stop><stop style="stop-color:#000000;stop-opacity:0;" offset="1" id="stop6037"></stop></linearGradient><linearGradient inkscape:collect="always" id="linearGradient1093"><stop style="stop-color: rgb(0, 0, 0); stop-opacity: 0.82069;" offset="0" id="stop1089"></stop><stop style="stop-color: rgb(0, 0, 0); stop-opacity: 1;" offset="1" id="stop1091"></stop></linearGradient><linearGradient inkscape:collect="always" xlink:href="#linearGradient6039" id="linearGradient6041" x1="1294.0289" y1="1140.116" x2="2364.5449" y2="1140.116" gradientUnits="userSpaceOnUse"></linearGradient><linearGradient inkscape:collect="always" xlink:href="#linearGradient1093" id="linearGradient6049" x1="2395.6575" y1="1140.1161" x2="1143.953" y2="1256.0342" gradientUnits="userSpaceOnUse"></linearGradient></defs><g inkscape:label="Layer 1" inkscape:groupmode="layer" id="layer1" transform="translate(0,504.59934)"><path style="color:#FFFFFF;fill:#FFFFFF;stroke-width:1.00083;stroke-linecap:round;stroke-linejoin:round;-inkscape-stroke:none;paint-order:stroke fill markers" d="m 27.518665,-491.82043 a 1.0008308,1.0008308 0 0 0 -1.000831,1.00083 v 11.22026 a 1.0009309,1.0009309 0 0 0 0.498461,0.86596 l 7.066412,4.11083 a 1.0008308,1.0008308 0 0 0 1.368323,-0.36163 1.0008308,1.0008308 0 0 0 -0.361628,-1.36833 l -6.569907,-3.82153 v -10.64556 a 1.0008308,1.0008308 0 0 0 -1.00083,-1.00083 z" id="path6984" inkscape:label="Hand of clock"></path><path id="path861" style="color: rgb(0, 0, 0); fill: rgb(255, 255, 255); stroke: none; stroke-width: 1.00083; stroke-linecap: round; stroke-linejoin: round; paint-order: stroke;" d="m 7.1150093,-493.47511 c -0.5527436,0 -1.0008308,0.44809 -1.0008308,1.00083 0,0.55274 0.4480872,1.00083 1.0008308,1.00083 H 21.300612 c 0.552744,0 1.000831,-0.44809 1.000831,-1.00083 0,-0.55274 -0.448087,-1.00083 -1.000831,-1.00083 z m 0.2521625,6.43698 c -0.5527435,0 -1.0008308,0.4481 -1.0008308,1.00084 0,0.55273 0.4480873,1.00083 1.0008308,1.00083 H 17.860256 c 0.552744,0 1.000831,-0.4481 1.000831,-1.00083 0,-0.55274 -0.448087,-1.00084 -1.000831,-1.00084 z m -1.3331379,6.43699 c -0.5527436,0 -1.0008308,0.44809 -1.0008308,1.00083 0,0.55274 0.4480872,1.00083 1.0008308,1.00083 H 16.705 c 0.552744,0 1.000831,-0.44809 1.000831,-1.00083 0,-0.55274 -0.448087,-1.00083 -1.000831,-1.00083 z m 0.3323071,6.43698 c -0.5527435,0 -1.0008308,0.44809 -1.0008308,1.00083 0,0.55274 0.4480873,1.00083 1.0008308,1.00083 h 11.493915 c 0.552744,0 1.000831,-0.44809 1.000831,-1.00083 0,-0.55274 -0.448087,-1.00083 -1.000831,-1.00083 z m 1.0008308,6.43894 c -0.5527435,0 -1.0008308,0.44809 -1.0008308,1.00083 0,0.55274 0.4480873,1.00083 1.0008308,1.00083 H 21.548865 c 0.552744,0 1.000831,-0.44809 1.000831,-1.00083 0,-0.55274 -0.448087,-1.00083 -1.000831,-1.00083 z" sodipodi:nodetypes="sssssssssssssssssssssssssssssssssss" inkscape:label="Arrows"></path><path id="path2771" style="color: rgb(0, 0, 0); fill: rgb(255, 255, 255); stroke-linecap: round; stroke-linejoin: round;" d="M 27.767578 -497.09934 C 27.416096 -497.10449 27.06344 -497.09788 26.710938 -497.08176 C 24.830923 -496.99576 22.942926 -496.60562 21.119141 -495.89036 A 1.00056 1.00056 0 0 0 20.552734 -494.59348 A 1.00056 1.00056 0 0 0 21.849609 -494.02707 C 28.319846 -496.5646 35.679422 -494.50023 39.880859 -488.96848 C 44.082298 -483.43674 44.091491 -475.802 39.904297 -470.2595 C 35.717101 -464.71698 28.363461 -462.63312 21.886719 -465.15403 A 1.00056 1.00056 0 0 0 20.591797 -464.58371 A 1.00056 1.00056 0 0 0 21.162109 -463.28879 C 28.464583 -460.4465 36.778214 -462.80233 41.5 -469.05246 C 46.221786 -475.3026 46.212453 -483.94142 41.474609 -490.17942 C 38.143313 -494.5655 33.039808 -497.02207 27.767578 -497.09934 z M 14.724609 -490.96848 A 1.00056 1.00056 0 0 0 14.568359 -490.96457 A 1.00056 1.00056 0 0 0 13.894531 -490.59934 C 13.500416 -490.11202 13.132554 -489.60262 12.792969 -489.0759 A 1.00056 1.00056 0 0 0 13.091797 -487.69309 A 1.00056 1.00056 0 0 0 14.476562 -487.99192 C 14.777318 -488.45841 15.102109 -488.90796 15.451172 -489.33957 A 1.00056 1.00056 0 0 0 15.302734 -490.74778 A 1.00056 1.00056 0 0 0 14.724609 -490.96848 z M 11.546875 -484.53293 A 1.00056 1.00056 0 0 0 10.507812 -483.77121 C 10.384596 -483.26984 10.283473 -482.76394 10.205078 -482.25364 A 1.00056 1.00056 0 0 0 11.042969 -481.11301 A 1.00056 1.00056 0 0 0 12.183594 -481.94895 C 12.253014 -482.40086 12.342053 -482.85064 12.451172 -483.29465 A 1.00056 1.00056 0 0 0 11.71875 -484.50559 A 1.00056 1.00056 0 0 0 11.546875 -484.53293 z M 11.216797 -478.09739 A 1.00056 1.00056 0 0 0 11.042969 -478.08567 A 1.00056 1.00056 0 0 0 10.205078 -476.94504 C 10.283788 -476.43202 10.385756 -475.92366 10.509766 -475.41965 A 1.00056 1.00056 0 0 0 11.720703 -474.68723 A 1.00056 1.00056 0 0 0 12.453125 -475.89817 C 12.343303 -476.34451 12.2533 -476.79541 12.183594 -477.24973 A 1.00056 1.00056 0 0 0 11.216797 -478.09739 z M 13.701172 -471.64231 A 1.00056 1.00056 0 0 0 13.103516 -471.48215 A 1.00056 1.00056 0 0 0 12.806641 -470.09934 C 13.140858 -469.58251 13.501873 -469.084 13.888672 -468.6052 A 1.00056 1.00056 0 0 0 15.296875 -468.45481 A 1.00056 1.00056 0 0 0 15.445312 -469.86301 C 15.102731 -470.28708 14.782331 -470.72755 14.486328 -471.18528 A 1.00056 1.00056 0 0 0 13.857422 -471.62082 A 1.00056 1.00056 0 0 0 13.701172 -471.64231 z " inkscape:label="Clock"></path></g></svg>