<?xml version="1.0" encoding="UTF-8"?>
<!DOCTYPE svg PUBLIC "-//W3C//DTD SVG 1.1//EN" "http://www.w3.org/Graphics/SVG/1.1/DTD/svg11.dtd">
<!-- Creator: CorelDRAW -->
<svg xmlns="http://www.w3.org/2000/svg" xml:space="preserve" width="24px" height="24px" version="1.1" style="shape-rendering:geometricPrecision; text-rendering:geometricPrecision; image-rendering:optimizeQuality; fill-rule:evenodd; clip-rule:evenodd"
viewBox="0 0 512 512"
 xmlns:xlink="http://www.w3.org/1999/xlink">
 <defs>
  <style type="text/css">
   <![CDATA[
    .str0 {stroke:white;stroke-width:13.9996;stroke-linecap:round;stroke-linejoin:round}
    .fil0 {fill:none}
   ]]>
  </style>
 </defs>
 <g id="Layer_x0020_1">
  <metadata id="CorelCorpID_0Corel-Layer"/>
  <g id="_529890880">
   <path class="fil0 str0" d="M337 282l168 0 0 39c0,36 -31,38 -57,38l-54 0c-26,0 -57,-2 -57,-38l0 -39z"/>
   <line class="fil0 str0" x1="337" y1="304" x2="505" y2= "304" />
   <path class="fil0 str0" d="M458 359l0 93 -74 0 0 -93c3,1 7,1 10,1l54 0c3,0 7,0 10,-1z"/>
   <path class="fil0 str0" d="M402 282l0 -47c0,-12 11,-22 23,-22 12,0 22,10 22,22"/>
   <line class="fil0 str0" x1="402" y1="262" x2="386" y2= "262" />
   <polygon class="fil0 str0" points="365,60 477,60 477,192 365,192 "/>
   <g>
    <rect class="fil0 str0" x="7" y="282" width="303.438" height="35.816" rx="152" ry="18"/>
    <path class="fil0 str0" d="M25 318l268 0 0 53c0,29 -24,52 -53,52l-163 0c-28,0 -52,-23 -52,-52l0 -53z"/>
    <g>
     <line class="fil0 str0" x1="214" y1="423" x2="242" y2= "452" />
     <line class="fil0 str0" x1="104" y1="423" x2="75" y2= "452" />
    </g>
   </g>
   <path class="fil0 str0" d="M27 282l0 -123c0,-31 25,-56 56,-56 11,0 21,3 30,10"/>
   <g>
    <path class="fil0 str0" d="M113 113c16,-9 35,-4 44,11l-55 32c-9,-15 -4,-35 11,-43z"/>
    <g>
     <line class="fil0 str0" x1="122" y1="170" x2="127" y2= "179" />
     <line class="fil0 str0" x1="140" y1="159" x2="145" y2= "168" />
     <line class="fil0 str0" x1="159" y1="149" x2="164" y2= "158" />
    </g>
    <g>
     <line class="fil0 str0" x1="145" y1="190" x2="151" y2= "199" />
     <line class="fil0 str0" x1="164" y1="179" x2="169" y2= "188" />
     <line class="fil0 str0" x1="182" y1="169" x2="187" y2= "178" />
    </g>
   </g>
   <line class="fil0 str0" x1="421" y1="359" x2="421" y2= "398" />
  </g>
 </g>
</svg>
