 <svg
      xmlns="http://www.w3.org/2000/svg"
     width="24"
      height="24"
      viewBox="0 0 37 36"
      fill="none"
    >
      <path
        d="M21.5213 35.9956H16.199C15.8986 35.9956 15.6551 35.7509 15.6551 35.4491V31.147C14.324 30.8195 13.0558 30.2909 11.8743 29.5712L8.84719 32.6173C8.74524 32.7199 8.6069 32.7775 8.46258 32.7775H8.46243C8.31812 32.7775 8.17984 32.7199 8.07782 32.6175L4.3134 28.8347C4.10112 28.6214 4.10097 28.2756 4.31317 28.0621L7.34061 25.0164C6.62304 23.8299 6.09819 22.5567 5.77596 21.2205H1.49115C1.19081 21.2205 0.947266 20.9758 0.947266 20.674V15.3258C0.947266 15.0239 1.19081 14.7794 1.49115 14.7794H5.77596C6.09932 13.4373 6.62538 12.1625 7.34409 10.9788L4.3134 7.9334C4.21138 7.83088 4.15413 7.69186 4.15413 7.54692C4.15413 7.40197 4.21145 7.26295 4.3134 7.16043L8.07782 3.37802C8.17984 3.27558 8.31819 3.21806 8.46235 3.21806C8.46235 3.21806 8.46243 3.21806 8.46258 3.21806C8.6069 3.21806 8.74524 3.2758 8.84719 3.37832L11.8743 6.42442C13.0558 5.70473 14.324 5.17619 15.6551 4.8486V0.546448C15.6551 0.244577 15.8986 0 16.199 0H21.5213C21.8218 0 22.0652 0.244653 22.0652 0.546448V4.8486C23.3977 5.17642 24.6646 5.70496 25.842 6.42412L28.8735 3.37802C29.0858 3.16471 29.4301 3.16456 29.6426 3.37802L33.4071 7.16043C33.5091 7.26295 33.5663 7.40197 33.5663 7.54692C33.5663 7.69186 33.509 7.83088 33.4071 7.9334L30.3763 10.9789C31.0902 12.1557 31.6159 13.4305 31.9434 14.7794H36.2293C36.5297 14.7794 36.7731 15.024 36.7731 15.3258V20.674C36.7731 20.9759 36.5296 21.2205 36.2293 21.2205H31.9434C31.6164 22.5659 31.0908 23.8394 30.3764 25.0167L33.4071 28.0618C33.5091 28.1643 33.5663 28.3034 33.5663 28.4483C33.5663 28.5932 33.5091 28.7322 33.4071 28.8348L29.6426 32.6176C29.5406 32.72 29.4023 32.7775 29.258 32.7775H29.2578C29.1136 32.7775 28.9752 32.7198 28.8732 32.6173L25.846 29.5712C24.6645 30.2909 23.3964 30.8194 22.0652 31.147V35.4491C22.0652 35.7509 21.8218 35.9956 21.5213 35.9956ZM16.7429 34.9026H20.9775V30.7109C20.9775 30.4524 21.1577 30.2292 21.4094 30.1761C22.9097 29.8589 24.329 29.2676 25.6277 28.4184C25.8432 28.2776 26.1274 28.3075 26.309 28.4903L29.2582 31.4578L32.2533 28.4482L29.2996 25.4805C29.1173 25.2974 29.088 25.0109 29.2293 24.7943C30.0716 23.5042 30.6595 22.0802 30.977 20.5616C31.0298 20.3086 31.2519 20.1275 31.5092 20.1275H35.6854V15.8723H31.5092C31.2519 15.8723 31.0298 15.6911 30.977 15.4381C30.6587 13.9153 30.0707 12.4898 29.2293 11.2012C29.088 10.9847 29.1173 10.6982 29.2995 10.515L32.2533 7.54692L29.2579 4.53739L26.3041 7.50556C26.1221 7.68844 25.8374 7.71796 25.6222 7.57674C24.3293 6.72827 22.9119 6.13705 21.4094 5.81947C21.1577 5.76635 20.9775 5.54317 20.9775 5.28471V1.0929H16.7429V5.28463C16.7429 5.5431 16.5627 5.76627 16.311 5.81947C14.8106 6.13659 13.3914 6.72797 12.0927 7.57712C11.8772 7.71804 11.5929 7.68814 11.4113 7.50525L8.46213 4.53762L5.46716 7.54692L8.4209 10.515C8.60312 10.6982 8.63242 10.9847 8.49105 11.2012C7.64336 12.4995 7.05553 13.9245 6.74372 15.4366C6.69146 15.6904 6.46898 15.8722 6.21117 15.8722H2.03503V20.1274H6.21117C6.46898 20.1274 6.69138 20.3093 6.74372 20.563C7.05402 22.0679 7.64072 23.4919 8.4875 24.7952C8.62804 25.0115 8.59859 25.2973 8.41689 25.4801L5.46694 28.4478L8.4622 31.4577L11.4113 28.4901C11.593 28.3073 11.8773 28.2773 12.0927 28.4183C13.3914 29.2674 14.8106 29.8588 16.311 30.1759C16.5627 30.2291 16.7429 30.4523 16.7429 30.7107V34.9026Z"
        fill="CurrentColor"
      />
      <path
        d="M18.8567 25.7888C14.5805 25.7888 11.1016 22.293 11.1016 17.996C11.1016 13.6989 14.5805 10.2031 18.8567 10.2031C23.1353 10.2031 26.6162 13.6989 26.6162 17.996C26.6162 22.293 23.1353 25.7888 18.8567 25.7888ZM18.8567 11.296C15.1803 11.296 12.1892 14.3016 12.1892 17.996C12.1892 21.6904 15.1803 24.6959 18.8567 24.6959C22.5356 24.6959 25.5286 21.6904 25.5286 17.996C25.5286 14.3016 22.5356 11.296 18.8567 11.296Z"
        fill="CurrentColor"
      />
    </svg>