<svg xmlns="http://www.w3.org/2000/svg" xml:space="preserve" width="1.70666in" height="1.70666in" version="1.1" style="shape-rendering:geometricPrecision; text-rendering:geometricPrecision; image-rendering:optimizeQuality; fill-rule:evenodd; clip-rule:evenodd" viewBox="0 0 1707 1707" xmlns:xlink="http://www.w3.org/1999/xlink">
 <defs>
  <style type="text/css">
   
    .fil0 {fill:black}
   
  </style>
 </defs>
 <g id="Layer_x0020_1">
  <metadata id="CorelCorpID_0Corel-Layer"></metadata>
  <path class="fil0" d="M697 1083c-49,0 -91,-37 -96,-83l-214 0c-103,0 -199,-41 -273,-114 -73,-74 -114,-170 -114,-273 0,-213 173,-386 387,-386l950 0c5,-48 46,-84 96,-84 53,0 97,43 97,94l0 273c0,51 -44,93 -97,93 -50,0 -89,-35 -95,-83l-951 0c-53,0 -94,41 -94,93 0,53 41,94 94,94l214 0c5,-46 47,-84 96,-84 54,0 96,41 96,94l0 273c0,52 -42,93 -96,93zm-424 480c-52,0 -96,-42 -96,-93l0 -273c0,-51 44,-94 96,-94 51,0 90,35 96,84l951 0c52,0 93,-41 93,-94 0,-52 -41,-93 -93,-93l-214 0c-5,46 -47,83 -96,83 -54,0 -97,-41 -97,-93l0 -273c0,-53 43,-94 97,-94 49,0 91,38 96,84l214 0c102,0 199,40 273,114 73,73 114,170 114,272 0,214 -174,387 -387,387l-951 0c-5,47 -45,83 -96,83zm97 -323l0 187 950 0c184,0 333,-150 333,-334 0,-180 -152,-333 -333,-333l-213 0 0 187 213 0c81,0 147,65 147,146 0,81 -66,147 -147,147l-950 0zm-97 -83c-22,0 -43,19 -43,40l0 273c0,21 21,40 43,40 25,0 44,-17 44,-40l0 -17 0 -240 0 -13c0,-25 -19,-43 -44,-43zm737 -480c-25,0 -43,17 -43,40l0 273c0,23 18,40 43,40 23,0 43,-19 43,-40l0 -17 0 -240 0 -16c0,-21 -20,-40 -43,-40zm327 -397l-950 0c-184,0 -334,150 -334,333 0,181 153,334 334,334l213 0 0 -187 -213 0c-81,0 -147,-66 -147,-147 0,-81 66,-146 147,-146l950 0 0 -187zm96 -83c-24,0 -43,17 -43,40l0 16 0 240 0 14c0,25 18,43 43,43 23,0 44,-19 44,-40l0 -273c0,-21 -21,-40 -44,-40zm-736 480c-23,0 -44,19 -44,40l0 16 0 240 0 17c0,21 21,40 44,40 24,0 43,-17 43,-40l0 -273c0,-23 -19,-40 -43,-40z" id="id_101" style="fill: rgb(3, 3, 3);"></path>
 </g>
</svg>