 <svg
      xmlns="http://www.w3.org/2000/svg"
     width="24"
      height="24"
      viewBox="0 0 25 19"
      fill="none"
    >
      <path
        fillRule="evenodd"
        clipRule="evenodd"
        d="M23.1667 18.6098C23.9031 18.6098 24.5 17.952 24.5 17.1404V17.1341C24.4982 16.754 24.3631 16.3808 24.1093 16.1016L18.5698 9.99628L14.0716 14.954C13.2036 15.9101 11.7964 15.9101 10.9284 14.954L6.43022 9.99628L0.890666 16.1016C0.636888 16.3808 0.501778 16.7535 0.5 17.1336V17.1404C0.5 17.5303 0.640443 17.904 0.890666 18.1793C1.14044 18.4551 1.47956 18.6098 1.83333 18.6098C3.38444 18.6098 23.1667 18.6098 23.1667 18.6098ZM24.5 3.46094L19.1982 9.30371L24.5 15.1465V3.46094ZM0.5 15.1465L5.80177 9.30371L0.5 3.46094V15.1465Z"
        fill="currentColor"
      />
      <path
        fillRule="evenodd"
        clipRule="evenodd"
        d="M24.5 1.4738V1.46939C24.5 0.657796 23.9031 0 23.1667 0H1.83333C1.09689 0 0.5 0.657796 0.5 1.46939V1.4738C0.500889 1.85437 0.636443 2.22857 0.890666 2.50825L11.5573 14.2633C12.0778 14.8374 12.9222 14.8374 13.4427 14.2633L24.1093 2.50825C24.3636 2.22857 24.4991 1.85437 24.5 1.4738Z"
        fill="currentColor"
      />
    </svg>