<svg xmlns="http://www.w3.org/2000/svg" xmlns:xlink="http://www.w3.org/1999/xlink" viewBox="0 0 512 512"><defs><style>.cls-1{fill:url(#linear-gradient);}.cls-2{fill:url(#linear-gradient-2);}.cls-3{fill:url(#linear-gradient-3);}.cls-4{fill:url(#linear-gradient-4);}.cls-5{fill:url(#linear-gradient-6);}.cls-6{fill:url(#linear-gradient-7);}.cls-7{fill:url(#linear-gradient-8);}.cls-8{fill:url(#linear-gradient-9);}.cls-9{fill:url(#linear-gradient-10);}.cls-10{fill:url(#linear-gradient-11);}</style><linearGradient id="linear-gradient" x1="256" y1="5.78325" x2="256" y2="499.21754" gradientUnits="userSpaceOnUse"><stop offset="0" stop-color="#030303" id="id_127"></stop><stop offset="1" stop-color="#030303" id="id_128"></stop></linearGradient><linearGradient id="linear-gradient-2" x1="116" y1="5.78325" x2="116" y2="499.21754" gradientTransform="translate(313.9899 33.96133) rotate(45)" xlink:href="#linear-gradient"></linearGradient><linearGradient id="linear-gradient-3" x1="88" y1="5.78325" x2="88" y2="499.21754" xlink:href="#linear-gradient"></linearGradient><linearGradient id="linear-gradient-4" x1="164" y1="5.78325" x2="164" y2="499.21754" xlink:href="#linear-gradient"></linearGradient><linearGradient id="linear-gradient-6" x1="474.11035" y1="5.78325" x2="474.11035" y2="499.21754" xlink:href="#linear-gradient"></linearGradient><linearGradient id="linear-gradient-7" x1="266.66748" y1="5.78325" x2="266.66748" y2="499.21754" xlink:href="#linear-gradient"></linearGradient><linearGradient id="linear-gradient-8" x1="37.88965" y1="5.78325" x2="37.88965" y2="499.21754" xlink:href="#linear-gradient"></linearGradient><linearGradient id="linear-gradient-9" x1="437.7915" y1="5.78325" x2="437.7915" y2="499.21754" xlink:href="#linear-gradient"></linearGradient><linearGradient id="linear-gradient-10" x1="260.16602" y1="5.78325" x2="260.16602" y2="499.21754" xlink:href="#linear-gradient"></linearGradient><linearGradient id="linear-gradient-11" x1="74.2085" y1="5.78325" x2="74.2085" y2="499.21754" xlink:href="#linear-gradient"></linearGradient></defs><g id="_GRADIENT" data-name="/ GRADIENT"><path class="cls-1" d="M481.18457,88.4541a23.632,23.632,0,0,0-26.15527,5.20215l-64,64A7.94368,7.94368,0,0,1,385.37305,160H360a8.00917,8.00917,0,0,1-8-8V126.627a7.94368,7.94368,0,0,1,2.34375-5.65625l64-64a23.62992,23.62992,0,0,0,5.20215-26.15527A23.62777,23.62777,0,0,0,401.37305,16H366.627a23.84338,23.84338,0,0,0-16.9707,7.0293L289.77441,82.91113A87.42365,87.42365,0,0,0,264,145.13672v13.72656a71.45591,71.45591,0,0,1-16.25,45.57227l-21.93579-21.93579a112.07638,112.07638,0,1,0-43.31445,43.31445L204.68555,248,76.28418,376.40137a41.94165,41.94165,0,0,0,59.31445,59.31445L264,307.31445l24,23.999v6.05957a23.84338,23.84338,0,0,0,7.0293,16.9707l81.37207,81.37207a41.94165,41.94165,0,0,0,59.31445-59.31445L354.34375,295.0293A23.84338,23.84338,0,0,0,337.37305,288h-6.05933l-23.99927-24,2.91114-2.91113A71.52553,71.52553,0,0,1,361.13672,240h13.72656a87.42365,87.42365,0,0,0,62.22559-25.77441l51.88183-51.88184A23.84338,23.84338,0,0,0,496,145.37305V110.627A23.62777,23.62777,0,0,0,481.18457,88.4541ZM32,128a96,96,0,1,1,96,96A96.10874,96.10874,0,0,1,32,128Zm164.13794,88.82349a112.961,112.961,0,0,0,20.68555-20.68555L236.68555,216,216,236.68555ZM424.40137,387.71582a25.9406,25.9406,0,1,1-36.68555,36.68555L306.34375,343.0293A7.94368,7.94368,0,0,1,304,337.37305v-6.05957L331.31348,304h6.05957a7.94368,7.94368,0,0,1,5.65625,2.34375ZM316.68652,296,296,316.68652,275.31445,296,296,275.31445ZM480,145.37305a7.94368,7.94368,0,0,1-2.34375,5.65625l-51.88184,51.88183A71.52553,71.52553,0,0,1,374.86328,224H361.13672a87.42365,87.42365,0,0,0-62.22559,25.77441l-174.627,174.627a25.9406,25.9406,0,1,1-36.68555-36.68555l166.627-166.627A87.42365,87.42365,0,0,0,280,158.86328V145.13672a71.52553,71.52553,0,0,1,21.08887-50.91113L360.9707,34.34375A7.94368,7.94368,0,0,1,366.627,32h34.7461a7.99953,7.99953,0,0,1,5.65625,13.65625l-64,64A23.84338,23.84338,0,0,0,336,126.627V152a24.0275,24.0275,0,0,0,24,24h25.373a23.84338,23.84338,0,0,0,16.9707-7.0293l64-64A7.99953,7.99953,0,0,1,480,110.627Z" id="id_115"></path><rect class="cls-2" x="99.02944" y="387.99947" width="33.94113" height="16.00105" transform="translate(-246.03867 198.0101) rotate(-45)" id="id_116"></rect><polygon class="cls-3" points="125.657 101.657 114.343 90.343 88 116.686 61.657 90.343 50.343 101.657 76.686 128 50.343 154.343 61.657 165.657 88 139.314 114.343 165.657 125.657 154.343 99.314 128 125.657 101.657" id="id_117"></polygon><polygon class="cls-4" points="194.343 98.343 152 140.687 133.657 122.343 122.343 133.657 152 163.313 205.657 109.657 194.343 98.343" id="id_118"></polygon><path class="cls-1" d="M256,480a223.77956,223.77956,0,0,1-113.585-30.8916l-8.125,13.7832a240.26351,240.26351,0,0,0,243.41992,0l-8.125-13.7832A223.77956,223.77956,0,0,1,256,480Z" id="id_119"></path><path class="cls-5" d="M473.43164,201.9248a224.83777,224.83777,0,0,1-21.21094,162.208l14.00586,7.73438a240.8276,240.8276,0,0,0,22.73438-173.792Z" id="id_120"></path><path class="cls-6" d="M256,32a224.64342,224.64342,0,0,1,58.53516,7.72363l4.16992-15.44726a242.0332,242.0332,0,0,0-104.0752-4.72266l2.74024,15.76367A226.19917,226.19917,0,0,1,256,32Z" id="id_121"></path><path class="cls-7" d="M35.31738,217.37012l-15.76367-2.74024A240.90326,240.90326,0,0,0,45.77344,371.86719l14.00586-7.73438A224.90515,224.90515,0,0,1,35.31738,217.37012Z" id="id_122"></path><path class="cls-8" d="M433.79785,347.67188A200.54646,200.54646,0,0,0,456,256a202.71467,202.71467,0,0,0-1.54688-24.99023l-15.877,1.98046A186.71669,186.71669,0,0,1,440,256a181.95175,181.95175,0,0,1-20.417,84.32812Z" id="id_123"></path><path class="cls-9" d="M239.3418,56.68457l1.3164,15.94531a187.91536,187.91536,0,0,1,38.35157.79395l1.98046-15.87695A203.61242,203.61242,0,0,0,239.3418,56.68457Z" id="id_124"></path><path class="cls-10" d="M56.68457,239.3418C56.23047,244.8418,56,250.44629,56,256a200.54646,200.54646,0,0,0,22.20215,91.67188L92.417,340.32812A181.95175,181.95175,0,0,1,72,256c0-5.11621.21191-10.27734.62988-15.3418Z" id="id_125"></path><path class="cls-1" d="M347.67188,433.79785,340.32812,419.583a184.35835,184.35835,0,0,1-168.65624,0l-7.34376,14.21484a200.356,200.356,0,0,0,183.34376,0Z" id="id_126"></path></g></svg>