<svg
      xmlns="http://www.w3.org/2000/svg"
     width="24"
      height="24"
      viewBox="0 0 36 42"
      fill="CurrentColor"
    >
      <path
        d="M14.8805 0.0191206C14.6345 0.0625371 14.5404 0.153712 14.4275 0.244886C14.3146 0.336061 14.18 0.443155 14.0657 0.561826C13.8399 0.800617 13.6315 1.08572 13.387 1.37661C13.1453 1.66605 12.9021 1.97575 12.7097 2.18994C12.6127 2.29704 12.4984 2.36071 12.4376 2.41571L12.3927 2.46057C12.3117 2.46057 12.1728 2.43452 12.0309 2.41716C11.7473 2.37663 11.4072 2.30138 11.0352 2.23481C10.6648 2.16968 10.2769 2.13495 9.94983 2.09877C9.78774 2.08285 9.64302 2.05101 9.4983 2.05535C9.32276 2.05053 9.14966 2.09733 9.00046 2.18994C8.84689 2.27232 8.72104 2.39818 8.63865 2.55175C8.56485 2.67621 8.52288 2.8079 8.45775 2.95841C8.31179 3.3011 8.17617 3.64811 8.05108 3.99896C7.92084 4.35642 7.79782 4.67915 7.68928 4.94833C7.63429 5.08292 7.59232 5.19147 7.55324 5.26527C7.54167 5.28698 7.51706 5.29711 7.50838 5.31014C7.43168 5.33474 7.28696 5.36803 7.14658 5.40131C6.86582 5.46354 6.52138 5.51564 6.15089 5.58221C5.78185 5.64879 5.38387 5.72838 5.06548 5.80798C4.90629 5.84705 4.79485 5.89047 4.66026 5.94402C4.52422 5.99756 4.36503 6.02506 4.20728 6.21465C4.04809 6.40568 4.05388 6.56921 4.02638 6.71249C3.99744 6.85576 3.99165 7.00048 3.98007 7.16547C3.95836 7.49398 3.93665 7.87026 3.93665 8.25088C3.93521 8.63005 3.94678 9.00054 3.93665 9.28998C3.92942 9.4347 3.90192 9.57074 3.89034 9.65178C3.88021 9.65612 3.87732 9.67204 3.84548 9.69665C3.78035 9.74874 3.69497 9.84571 3.5734 9.92386C3.33172 10.0787 2.99452 10.2755 2.66889 10.4666C2.34327 10.6576 2.03646 10.824 1.76439 11.0093C1.62835 11.1019 1.51257 11.1829 1.40258 11.2799C1.29404 11.3769 1.17103 11.455 1.08709 11.6866C1.02232 11.8442 1.00619 12.0176 1.04078 12.1844C1.06393 12.3291 1.13195 12.4782 1.17682 12.6374C1.26799 12.9543 1.36495 13.3205 1.49376 13.6779C1.62111 14.0339 1.76873 14.3958 1.85556 14.6722C1.89898 14.8097 1.92792 14.9529 1.94529 15.034C1.94095 15.0484 1.967 15.0484 1.94529 15.0788C1.90187 15.1483 1.8078 15.2814 1.71952 15.3958C1.54441 15.6259 1.32733 15.8734 1.08564 16.1642C0.845403 16.4566 0.600825 16.7576 0.408345 17.0239C0.311382 17.157 0.205735 17.3032 0.136268 17.4306C0.0435369 17.5798 -0.0037335 17.7528 0.000230338 17.9284C0.000230338 18.1744 0.066802 18.2526 0.136268 18.3814C0.205735 18.5073 0.311382 18.6535 0.408345 18.7866C0.600825 19.0543 0.845404 19.3554 1.08709 19.6477C1.32733 19.9386 1.54441 20.2309 1.71952 20.461C1.80635 20.5754 1.90187 20.6636 1.94529 20.7331C1.95976 20.7534 1.98291 20.762 1.9916 20.7765C1.98581 20.7953 1.95108 20.7982 1.94529 20.8228C1.92008 20.9298 1.89014 21.0355 1.85556 21.1398C1.76873 21.4147 1.62111 21.7765 1.49376 22.134C1.36495 22.4915 1.26799 22.8576 1.17682 23.1746C1.13195 23.3337 1.06393 23.4828 1.04078 23.6275C1.00649 23.7939 1.02261 23.9668 1.08709 24.1239C1.16958 24.3555 1.29404 24.4351 1.40258 24.532C1.51257 24.629 1.62835 24.71 1.76439 24.8027C2.03646 24.9865 2.34327 25.1992 2.66889 25.3902C2.99452 25.5813 3.33172 25.7332 3.5734 25.8881C3.69497 25.9662 3.78035 26.0632 3.84548 26.1138C3.87732 26.1399 3.88021 26.2007 3.89034 26.205C3.90337 26.2875 3.93087 26.3932 3.93521 26.5205C3.94678 26.8114 3.93521 27.1819 3.93521 27.5625C3.93521 27.9417 3.95836 28.318 3.98152 28.6479C3.99165 28.8115 3.99744 28.9562 4.02493 29.0995C4.05388 29.2427 4.04809 29.4063 4.20728 29.5958C4.36648 29.7869 4.52422 29.8144 4.65881 29.8679C4.79485 29.9215 4.90774 29.9634 5.06693 30.004C5.38532 30.0836 5.78185 30.1632 6.15234 30.2297C6.52138 30.2963 6.86582 30.3484 7.14658 30.4106C7.28696 30.441 7.43168 30.4758 7.50838 30.5018C7.52285 30.5061 7.54167 30.496 7.55324 30.5018C7.56193 30.5134 7.54456 30.5279 7.55324 30.5452C7.59232 30.6176 7.63429 30.729 7.68928 30.8636C7.77901 31.085 7.90057 31.3817 8.00622 31.6769L4.97575 37.104C4.7167 37.5946 5.25072 38.2762 5.79054 38.1445L9.04677 37.2849L9.90497 40.5411C10.0482 41.1171 11.0092 41.2126 11.2625 40.6772L14.2017 35.3398C14.2828 35.4122 14.3523 35.5048 14.4275 35.5671C14.5404 35.6582 14.6345 35.748 14.8805 35.7928C15.1265 35.8362 15.2394 35.7928 15.3783 35.7465C15.5158 35.6987 15.6388 35.638 15.7836 35.5656C16.0788 35.4209 16.4087 35.2125 16.7344 35.0229C17.06 34.8348 17.3856 34.6611 17.6389 34.5265C17.7662 34.4585 17.8806 34.4223 17.9558 34.3905C17.9703 34.3977 18.0079 34.376 18.0455 34.3905C18.1208 34.4223 18.2351 34.4585 18.3625 34.5265C18.6172 34.6611 18.9414 34.8348 19.267 35.0229C19.5941 35.2125 19.9226 35.4209 20.2164 35.5656C20.364 35.638 20.4856 35.6987 20.6245 35.7465C20.762 35.7943 20.8749 35.8377 21.1209 35.7928C21.2718 35.7741 21.4138 35.7112 21.529 35.6119C21.5579 35.5873 21.5883 35.5511 21.6187 35.5207L24.558 40.6772C24.8113 41.2126 25.7737 41.1171 25.9155 40.5411L26.7737 37.2849L30.0299 38.1445C30.5683 38.2777 31.1038 37.5946 30.8447 37.104L27.9054 31.9476C27.917 31.9157 27.9387 31.8911 27.9503 31.8578C28.0805 31.5018 28.2036 31.1313 28.3121 30.8622C28.3671 30.7276 28.4091 30.619 28.4481 30.5467C28.4394 30.5264 28.4771 30.5163 28.493 30.5004C28.5697 30.4758 28.7144 30.441 28.8548 30.4106C29.1356 30.3484 29.48 30.2963 29.8505 30.2297C30.2195 30.1632 30.6175 30.0821 30.9359 30.004C31.0951 29.9649 31.2065 29.9215 31.3411 29.8679C31.4771 29.8144 31.6363 29.7869 31.7941 29.5958C31.9533 29.4063 31.9475 29.2427 31.975 29.0995C32.0039 28.9547 32.0097 28.8115 32.0213 28.6465C32.043 28.318 32.0647 27.9417 32.0647 27.5611C32.0662 27.1819 32.0546 26.8114 32.0647 26.522C32.0705 26.3946 32.098 26.2875 32.111 26.2036C32.1067 26.2065 32.1081 26.1674 32.111 26.1602C32.1226 26.15 32.1371 26.1298 32.1559 26.1138C32.221 26.0632 32.3064 25.9662 32.428 25.8881C32.6697 25.7332 33.0069 25.5813 33.3325 25.3902C33.6567 25.1992 33.9649 24.9865 34.237 24.8027C34.373 24.71 34.4888 24.629 34.5988 24.5306C34.7073 24.4336 34.8303 24.3569 34.9143 24.1254C34.9982 23.8924 34.9374 23.7708 34.9143 23.6261C34.8926 23.4814 34.8709 23.3323 34.8246 23.1746C34.7334 22.8562 34.5901 22.4915 34.4628 22.134C34.3354 21.778 34.2341 21.4162 34.1458 21.1398C34.1114 21.0355 34.0814 20.9297 34.0561 20.8228C34.0546 20.8141 34.0127 20.8301 34.0098 20.8228C34.0025 20.8373 34.0011 20.8272 34.0098 20.778C34.0185 20.7606 34.0431 20.7534 34.0561 20.7331C34.0995 20.6622 34.1936 20.5754 34.2819 20.461C34.457 20.2309 34.6726 19.94 34.9157 19.6462C35.156 19.3554 35.4005 19.0543 35.593 18.788C35.69 18.6549 35.7956 18.5087 35.8651 18.3814C35.9346 18.2526 35.9997 18.1744 35.9997 17.9284C36.0043 17.7529 35.9575 17.5799 35.8651 17.4306C35.7823 17.2899 35.6915 17.1541 35.593 17.0239C35.3761 16.7305 35.1502 16.4438 34.9157 16.1642C34.674 15.8734 34.457 15.6259 34.2819 15.3958C34.2024 15.2932 34.1271 15.1874 34.0561 15.0788C34.0344 15.0441 34.0604 15.0456 34.0561 15.034C34.0735 14.9529 34.1024 14.8097 34.1458 14.6722C34.2326 14.3972 34.334 14.0354 34.4628 13.6765C34.5901 13.3205 34.7334 12.9529 34.8246 12.6374C34.8694 12.4782 34.8926 12.3291 34.9157 12.1844C34.9374 12.0411 34.9982 11.9196 34.9157 11.6866C34.8318 11.455 34.7073 11.3769 34.5973 11.2813C34.4829 11.1828 34.362 11.0919 34.2355 11.0093C33.9649 10.824 33.6567 10.6576 33.3325 10.4666C33.0069 10.2755 32.6697 10.0787 32.428 9.92386C32.3064 9.84571 32.221 9.7473 32.1559 9.69809C32.1559 9.6923 32.1125 9.70388 32.111 9.69809C32.0864 9.65323 32.1009 9.64744 32.111 9.65178C32.0995 9.56929 32.072 9.4347 32.0662 9.28998C32.0546 9.00054 32.0662 8.63005 32.0662 8.24943C32.0662 7.87026 32.043 7.49398 32.0199 7.16402C32.0097 7.00048 32.0039 6.85576 31.9764 6.71249C31.9475 6.56921 31.9533 6.40568 31.7941 6.21465C31.6349 6.02361 31.4771 5.99756 31.3426 5.94402C31.2101 5.88864 31.0737 5.84316 30.9344 5.80798C30.6161 5.72838 30.2195 5.64879 29.849 5.58221C29.48 5.51564 29.1356 5.46354 28.8548 5.40131C28.7329 5.37637 28.6122 5.34595 28.493 5.31014C28.4843 5.29567 28.4597 5.28698 28.4481 5.26527C28.4091 5.19147 28.3671 5.08292 28.3121 4.94833C28.2036 4.6806 28.0805 4.35498 27.9503 3.99896C27.82 3.6415 27.6753 3.26088 27.5436 2.95841C27.477 2.8079 27.4365 2.67621 27.3627 2.55175C27.2803 2.39818 27.1545 2.27232 27.0009 2.18994C26.8522 2.09602 26.6789 2.04865 26.5031 2.0539C26.3584 2.0539 26.2136 2.08285 26.0501 2.09877C25.7245 2.13495 25.3366 2.17113 24.9647 2.23481C24.5942 2.29993 24.2555 2.37663 23.9704 2.41571C23.8286 2.43452 23.6897 2.45912 23.6086 2.46057C23.6 2.45912 23.5884 2.4707 23.5638 2.46057C23.5536 2.45189 23.5754 2.42729 23.5638 2.41716C23.503 2.36071 23.3901 2.29704 23.2917 2.18994C23.0992 1.97575 22.8575 1.66605 22.6144 1.37516C22.3713 1.08572 22.1614 0.800617 21.9342 0.561826C21.8213 0.443155 21.6867 0.337508 21.5724 0.244886C21.461 0.153712 21.3669 0.0625371 21.1209 0.0191206C20.8749 -0.0242958 20.762 0.0191207 20.6245 0.0639843C20.4856 0.111742 20.364 0.172525 20.2164 0.244886C19.9226 0.391055 19.5941 0.599454 19.267 0.787591C18.9399 0.975729 18.6158 1.15084 18.3625 1.28543C18.2351 1.35345 18.1208 1.4345 18.0455 1.46634C17.9703 1.49673 17.8965 1.46634 18.0007 1.46634C18.1049 1.46634 18.0296 1.49673 17.9558 1.46634C17.8806 1.43594 17.7662 1.35345 17.6389 1.28543C17.3842 1.15084 17.06 0.977177 16.7344 0.787591C16.4087 0.599454 16.0788 0.391055 15.785 0.244886C15.6374 0.172525 15.5158 0.111742 15.3783 0.0639843C15.2394 0.0162262 15.1265 -0.025743 14.8805 0.0191206ZM15.0614 1.1494C15.1265 1.174 15.2307 1.18992 15.332 1.24057C15.578 1.36214 15.8675 1.55027 16.1917 1.73841C16.5144 1.9251 16.853 2.08285 17.141 2.23481C17.2858 2.31151 17.4204 2.40847 17.5477 2.46057C17.6898 2.52506 17.8447 2.55624 18.0007 2.55175C18.1566 2.55549 18.3114 2.52434 18.4537 2.46057C18.581 2.40847 18.7156 2.31151 18.8589 2.23481C19.1483 2.08285 19.487 1.9251 19.8097 1.73696C20.1324 1.55027 20.4219 1.36214 20.6693 1.24057C20.7707 1.18992 20.8749 1.17544 20.94 1.1494C20.9921 1.19571 21.0471 1.20728 21.1209 1.28543C21.3119 1.48515 21.5594 1.76736 21.7996 2.0539C22.0399 2.3419 22.3047 2.67042 22.5232 2.91355C22.6332 3.03512 22.7374 3.13642 22.8402 3.23049C22.9415 3.32456 23.0023 3.38245 23.202 3.45626C23.3441 3.51908 23.4982 3.5502 23.6535 3.54743C23.7924 3.54743 23.9444 3.52283 24.1065 3.50112C24.4278 3.4577 24.7794 3.38534 25.1456 3.32022C25.5132 3.25654 25.8692 3.16971 26.1413 3.13932C26.2426 3.12484 26.3439 3.13932 26.4133 3.13932C26.4481 3.20155 26.5002 3.29851 26.5479 3.41139C26.6594 3.66465 26.7824 4.00764 26.9097 4.36076C27.0385 4.71388 27.1934 5.05253 27.3179 5.35645C27.3786 5.50696 27.4336 5.63865 27.4988 5.76167C27.5624 5.88613 27.6073 5.98743 27.7694 6.12347C27.9315 6.2624 28.0444 6.30872 28.1761 6.35068C28.3092 6.3941 28.4698 6.40568 28.629 6.44186C28.9474 6.51133 29.302 6.60105 29.6681 6.66762C30.0357 6.7342 30.3975 6.78195 30.6638 6.84853C30.7796 6.87747 30.8693 6.9151 30.9359 6.93825C30.9475 7.01061 30.9721 7.09021 30.9793 7.21033C30.9996 7.48675 30.9793 7.87315 30.9793 8.24943C30.9808 8.62571 30.9677 9.00777 30.9793 9.33484C30.9865 9.49982 31.0083 9.65033 31.0256 9.78782C31.0444 9.9253 31.056 10.057 31.1617 10.2408C31.2659 10.4231 31.3686 10.4709 31.4771 10.5563C31.5871 10.6431 31.7029 10.7401 31.839 10.8284C32.1139 11.0035 32.467 11.1815 32.7898 11.3711C33.1111 11.5592 33.4208 11.7589 33.648 11.9138C33.7637 11.9905 33.8216 12.0484 33.8752 12.0947C33.8607 12.1641 33.8173 12.2495 33.784 12.3653C33.7073 12.633 33.5944 12.9616 33.4685 13.3147C33.3412 13.6692 33.2051 14.0426 33.1067 14.3567C33.0561 14.5115 33.0445 14.6707 33.0155 14.8082C32.9866 14.9442 32.9345 15.0528 32.9707 15.2597C33.0069 15.4681 33.0778 15.5492 33.1516 15.6664C33.2239 15.7865 33.3238 15.898 33.4222 16.0282C33.6219 16.2887 33.8622 16.5999 34.1009 16.8879C34.3397 17.1773 34.5713 17.432 34.7348 17.6563C34.8159 17.7707 34.881 17.8676 34.9157 17.9284C34.8796 17.9892 34.8057 18.0558 34.7348 18.1542C34.5713 18.3785 34.3397 18.6795 34.1009 18.9689C33.8622 19.2584 33.6219 19.5232 33.4222 19.7823C33.3238 19.9125 33.2254 20.0269 33.1516 20.1441C33.0599 20.2806 32.9983 20.435 32.9707 20.5971C32.9345 20.804 32.9851 20.9126 33.0155 21.0486C33.0445 21.1846 33.0561 21.3004 33.1067 21.4567C33.2051 21.7679 33.3412 22.1427 33.4685 22.4958C33.5944 22.8504 33.7073 23.1789 33.784 23.4466C33.8173 23.5624 33.8622 23.6478 33.8752 23.7173C33.8231 23.7636 33.7623 23.8215 33.648 23.8982C33.4208 24.053 33.1125 24.2513 32.7898 24.4409C32.467 24.629 32.1139 24.8085 31.839 24.9836C31.7029 25.0719 31.5871 25.1688 31.4771 25.2556C31.3686 25.341 31.2659 25.3888 31.1617 25.5711C31.056 25.7549 31.0444 25.8852 31.0256 26.0241C31.0068 26.1616 30.9865 26.3121 30.9808 26.4757C30.9663 26.8042 30.9808 27.1848 30.9808 27.5611C30.9808 27.9373 30.9996 28.3237 30.9808 28.6016C30.9721 28.7203 30.946 28.8028 30.9344 28.8737C30.8693 28.8968 30.7796 28.9359 30.6638 28.9634C30.3975 29.03 30.0357 29.0777 29.6681 29.1443C29.302 29.2109 28.946 29.3006 28.629 29.3701C28.4698 29.4048 28.3092 29.4178 28.1761 29.4613C28.0252 29.5049 27.8862 29.5821 27.7694 29.687C27.6073 29.8245 27.5624 29.9258 27.4973 30.0488C27.4306 30.1814 27.3702 30.3171 27.3164 30.4555C27.1934 30.7594 27.0385 31.0981 26.9112 31.4512C26.7809 31.8043 26.6594 32.1922 26.5494 32.4454C26.5002 32.5554 26.4481 32.6104 26.4119 32.6726C26.3453 32.6726 26.244 32.6871 26.1413 32.6726C25.8692 32.6437 25.5132 32.5554 25.1456 32.4917C24.7794 32.428 24.4278 32.4005 24.1065 32.3557C23.9564 32.3327 23.8052 32.3173 23.6535 32.3094C23.5146 32.3094 23.4017 32.2804 23.202 32.3557C22.9849 32.4353 22.9053 32.5221 22.7939 32.6263C22.6839 32.7305 22.5536 32.8521 22.4321 32.9881C22.1904 33.2616 21.9226 33.5858 21.665 33.8926C21.448 34.1517 21.241 34.402 21.076 34.5714C21.0239 34.6235 21.0239 34.6727 20.9848 34.7074H20.9414C20.8749 34.6828 20.7764 34.6698 20.6693 34.6162C20.4233 34.4947 20.1339 34.3065 19.8097 34.1198C19.487 33.9317 19.1483 33.7291 18.8603 33.5771C18.7156 33.5004 18.581 33.4498 18.4522 33.3962C18.3249 33.3427 18.2134 33.2602 18.0007 33.2602C17.7879 33.2602 17.6765 33.3412 17.5477 33.3948C17.4204 33.4483 17.2858 33.499 17.1425 33.5757C16.853 33.7291 16.5144 33.9317 16.1917 34.1184C15.8689 34.3065 15.578 34.4947 15.332 34.6162C15.2249 34.6698 15.1265 34.6828 15.0614 34.7074C14.9988 34.6495 14.9384 34.5891 14.8805 34.5265C14.6466 34.2767 14.4203 34.02 14.2017 33.7566C13.9615 33.47 13.6967 33.1401 13.4781 32.8984C13.3777 32.7876 13.272 32.6818 13.1612 32.5814C13.0599 32.4874 12.9991 32.428 12.7994 32.3557C12.5997 32.2819 12.4868 32.3036 12.3479 32.3094C12.2089 32.3094 12.057 32.334 11.8949 32.3557C11.5736 32.3991 11.2219 32.4252 10.8543 32.4903C10.4882 32.554 10.1322 32.6422 9.8601 32.6712C9.7588 32.6856 9.65749 32.6712 9.58803 32.6712C9.55474 32.6089 9.50119 32.5554 9.45344 32.4454C9.342 32.1922 9.21899 31.8043 9.09163 31.4512C8.96283 31.0981 8.80798 30.7594 8.68496 30.4555C8.63057 30.3172 8.56972 30.1815 8.50262 30.0488C8.43894 29.9258 8.39407 29.8245 8.23199 29.687C8.11494 29.5824 7.976 29.5053 7.82532 29.4613C7.69218 29.4178 7.53154 29.4063 7.37234 29.3701C7.05395 29.3006 6.69939 29.2109 6.33179 29.1443C5.96565 29.0777 5.60385 29.03 5.33756 28.9634C5.22178 28.9345 5.13205 28.8954 5.06548 28.8722C5.05535 28.8013 5.0293 28.7203 5.02207 28.6016C5.0018 28.3237 5.02207 27.9373 5.02207 27.5611C5.02062 27.1848 5.03364 26.8042 5.02207 26.4757C5.01386 26.3245 4.9984 26.1738 4.97575 26.0241C4.95694 25.8852 4.94536 25.7549 4.83972 25.5711C4.73552 25.3888 4.63276 25.3396 4.52422 25.2556C4.41424 25.1688 4.29846 25.0719 4.16242 24.9836C3.88745 24.8085 3.53433 24.6305 3.2116 24.4409C2.89032 24.2527 2.58061 24.053 2.3534 23.8982C2.23762 23.8215 2.17974 23.7636 2.12619 23.7173C2.14066 23.6478 2.18408 23.561 2.21736 23.4452C2.29407 23.1789 2.40695 22.8504 2.53286 22.4958C2.66021 22.1427 2.79625 21.7679 2.89466 21.4567C2.94531 21.3004 2.95689 21.1861 2.98583 21.0486C3.01478 20.9126 3.06688 20.804 3.0307 20.5971C3.00308 20.435 2.94142 20.2806 2.8498 20.1441C2.77744 20.0254 2.67758 19.9125 2.57917 19.7823C2.3809 19.5218 2.13921 19.2569 1.90042 18.9689C1.66163 18.6795 1.42863 18.3785 1.26654 18.1542C1.2013 18.0674 1.14091 17.977 1.08564 17.8835C1.12182 17.8213 1.19563 17.7562 1.26654 17.6578C1.42863 17.432 1.66163 17.1773 1.90042 16.8879C2.13921 16.5984 2.3809 16.2887 2.57917 16.0282C2.67758 15.898 2.77599 15.7851 2.8498 15.6664C2.9236 15.5492 2.99452 15.4681 3.0307 15.2612C3.06688 15.0528 3.01623 14.9442 2.98583 14.8082C2.95689 14.6722 2.94531 14.5115 2.89466 14.3552C2.79625 14.0426 2.66021 13.6692 2.53286 13.3147C2.41818 13.0015 2.31297 12.6849 2.21736 12.3653C2.18408 12.2495 2.13921 12.1641 2.12619 12.0947C2.17829 12.0484 2.23907 11.9905 2.3534 11.9138C2.58061 11.7589 2.88887 11.5592 3.2116 11.3711C3.53433 11.1829 3.88745 11.0035 4.16242 10.8284C4.29846 10.7401 4.41424 10.6431 4.52422 10.5563C4.63276 10.4709 4.73552 10.4231 4.83972 10.2394C4.94536 10.057 4.95694 9.92675 4.97575 9.78782C4.99457 9.65033 5.01483 9.49838 5.02062 9.33484C5.03509 9.00777 5.02062 8.62571 5.02062 8.24943C5.02062 7.87315 5.0018 7.48675 5.02062 7.21033C5.0293 7.09021 5.05535 7.00772 5.06693 6.93825C5.13205 6.9151 5.22178 6.87602 5.33756 6.84853C5.60385 6.78195 5.96565 6.73275 6.33324 6.66762C6.69939 6.60105 7.0554 6.51133 7.37234 6.44041C7.53154 6.40568 7.69218 6.39265 7.82532 6.35068C7.97593 6.30649 8.11483 6.22937 8.23199 6.12492C8.39407 5.98743 8.43894 5.88613 8.50406 5.76311C8.56774 5.63865 8.62274 5.50696 8.68352 5.355C8.80798 5.05109 8.96283 4.71388 9.09163 4.36076C9.21899 4.00764 9.342 3.6661 9.45344 3.41139C9.50264 3.29996 9.55474 3.20155 9.58947 3.13932C9.65605 3.13932 9.75735 3.12484 9.8601 3.13932C10.1322 3.16971 10.4882 3.25654 10.8558 3.32022C11.2219 3.38389 11.5736 3.4577 11.8949 3.50112C12.057 3.52283 12.2089 3.54309 12.3479 3.54743C12.5029 3.5466 12.6562 3.51563 12.7994 3.45626C12.9991 3.38245 13.0599 3.32456 13.1612 3.23049C13.264 3.13642 13.3682 3.03512 13.4781 2.91355C13.6967 2.67042 13.9615 2.3419 14.2017 2.0539C14.442 1.76736 14.6895 1.48515 14.8805 1.28543C14.9543 1.20728 15.0107 1.19571 15.0614 1.1494ZM17.911 4.90347C14.4912 4.90347 11.1018 6.28411 8.68352 8.70241C6.26667 11.1193 4.88603 14.5086 4.88603 17.9284C4.88603 21.3467 6.26667 24.6912 8.68496 27.1095C11.1018 29.5264 14.4912 30.9533 17.9095 30.9533C21.3293 30.9533 24.7187 29.5264 27.137 27.1095C29.5629 24.6689 30.9281 21.3696 30.9359 17.9284C30.9359 14.5101 29.5538 11.1207 27.137 8.70241C24.7187 6.28556 21.3293 4.90347 17.911 4.90347ZM17.911 6.35068C20.9327 6.35068 23.9603 7.60542 26.0964 9.74296C28.2516 11.9244 29.4685 14.862 29.4872 17.9284C29.4872 20.9502 28.2325 23.9778 26.0964 26.1138C23.9149 28.2699 20.9767 29.4874 17.9095 29.5061C14.8429 29.487 11.9052 28.2696 9.72406 26.1138C7.56832 23.9327 6.35089 20.9951 6.33179 17.9284C6.33179 14.9066 7.58798 11.879 9.72406 9.74296C11.9052 7.58721 14.8443 6.36978 17.911 6.35068ZM17.8646 11.0093C17.4305 11.0093 17.2423 11.2133 17.0962 11.3711C16.9515 11.5274 16.8473 11.7271 16.7344 11.9138C16.5086 12.2872 16.3147 12.7242 16.1005 13.1801C15.8863 13.636 15.6417 14.0976 15.4681 14.4464C15.3812 14.6201 15.345 14.759 15.2872 14.8531C15.2582 14.9008 15.2119 14.9312 15.196 14.9442C15.0889 14.9703 14.8921 14.9587 14.6996 14.9877C14.3132 15.0513 13.8428 15.1469 13.3421 15.2149C12.8414 15.2829 12.3652 15.3364 11.9398 15.4406C11.7221 15.4951 11.5103 15.5707 11.3073 15.6664C11.1148 15.759 10.8514 15.8401 10.7197 16.2554C10.5881 16.6693 10.7501 16.9284 10.8558 17.1151C10.96 17.3003 11.0729 17.4479 11.2176 17.6115C11.5041 17.9414 11.8877 18.2627 12.2567 18.6071C12.6257 18.9516 12.9731 19.3293 13.2524 19.6014C13.3913 19.7374 13.5418 19.8329 13.6142 19.9183C13.6142 19.9357 13.6171 19.9545 13.6142 20.0095C13.6069 20.1195 13.5997 20.2685 13.5693 20.461C13.5085 20.846 13.387 21.367 13.2972 21.8634C13.2126 22.3424 13.1523 22.8255 13.1163 23.3106C13.1004 23.5277 13.0888 23.7303 13.1163 23.943C13.1438 24.1543 13.1699 24.4134 13.523 24.6666C13.8776 24.9199 14.1742 24.8446 14.3826 24.8027C14.5925 24.7607 14.7691 24.7057 14.9702 24.6218C15.374 24.451 15.7951 24.2325 16.2365 23.9879C16.6794 23.7448 17.1121 23.4452 17.458 23.2643C17.6316 23.1746 17.8068 23.1268 17.911 23.0834C17.9341 23.0921 17.9688 23.0718 18.0007 23.0834C18.1034 23.1268 18.2785 23.2223 18.4537 23.3106C18.801 23.4872 19.2279 23.7057 19.6737 23.943C20.1194 24.1818 20.5362 24.4105 20.94 24.5769C21.1426 24.6594 21.3177 24.7187 21.529 24.7578C21.7388 24.7969 22.037 24.8779 22.3872 24.6218C22.7374 24.3642 22.7693 24.0646 22.7953 23.8533C22.8172 23.6426 22.8172 23.4301 22.7953 23.2194C22.7562 22.7853 22.6651 22.3135 22.5681 21.8185C22.4726 21.3221 22.3626 20.7997 22.2975 20.4147C22.2642 20.2237 22.2613 20.0746 22.2512 19.9632V19.9183C22.2642 19.901 22.2801 19.8937 22.2975 19.8735C22.3698 19.7866 22.4755 19.6954 22.613 19.5565C22.8879 19.2815 23.2439 18.9111 23.6086 18.5608C23.9733 18.2135 24.3207 17.8546 24.6043 17.5217C24.7447 17.3553 24.8634 17.2106 24.9661 17.0239C25.0674 16.8358 25.2382 16.5767 25.1007 16.1642C24.9647 15.7518 24.6622 15.665 24.4683 15.5767C24.2744 15.487 24.092 15.4001 23.8793 15.3509C23.4008 15.2523 22.9178 15.177 22.4321 15.1251C21.9313 15.0615 21.4624 15.0456 21.076 14.9891C20.9237 14.9657 20.7726 14.9352 20.623 14.8979C20.6115 14.8864 20.5492 14.9182 20.5333 14.8979C20.5044 14.8762 20.542 14.8589 20.5333 14.8531C20.4754 14.759 20.3958 14.5738 20.3075 14.4001C20.1295 14.0528 19.94 13.6331 19.7185 13.1801C19.4986 12.7257 19.2265 12.2394 18.9949 11.8689C18.8806 11.6822 18.8256 11.5259 18.6794 11.3711C18.5791 11.2539 18.4539 11.1607 18.3129 11.0981C18.172 11.0355 18.0188 11.0051 17.8646 11.0093ZM17.8646 12.8632C18.0195 13.1323 18.2293 13.4464 18.4074 13.8125C18.6215 14.2539 18.7981 14.6924 18.9964 15.0788C19.0948 15.2728 19.2135 15.4667 19.3119 15.6215C19.4103 15.7778 19.4826 15.9052 19.72 16.0745C19.9559 16.2438 20.0818 16.2583 20.2627 16.3003C20.4421 16.3437 20.6795 16.3582 20.8951 16.3915C21.3249 16.4537 21.8098 16.5101 22.2975 16.5709C22.7114 16.6245 23.0746 16.6462 23.3829 16.707C23.1716 16.94 22.9154 17.2323 22.613 17.5217C22.2598 17.8604 21.8807 18.2092 21.5739 18.516C21.4205 18.6708 21.2844 18.7823 21.1657 18.9226C21.0485 19.0659 20.9385 19.1889 20.8503 19.4668C20.762 19.7418 20.7895 19.8706 20.8039 20.0544C20.8184 20.2382 20.8589 20.4741 20.8951 20.6868C20.9675 21.1152 21.0731 21.6087 21.1672 22.0891C21.2453 22.4987 21.3119 22.8634 21.3481 23.1746C21.0586 23.0472 20.7258 22.8764 20.3524 22.6767C19.9197 22.4452 19.4739 22.1948 19.0861 21.9994C18.8922 21.901 18.7142 21.7968 18.5434 21.7273C18.3448 21.6355 18.1283 21.589 17.9095 21.5913C17.6201 21.5913 17.5376 21.6564 17.3683 21.7273C17.1975 21.7983 17.018 21.8981 16.8241 21.9994C16.4391 22.2006 15.9876 22.4857 15.5592 22.723C15.2018 22.9184 14.8906 23.0443 14.6084 23.1746C14.6417 22.8634 14.6706 22.4987 14.7445 22.0891C14.8313 21.6072 14.9485 21.1166 15.0165 20.6868C15.0498 20.4726 15.0484 20.2816 15.0599 20.0992C15.0744 19.9154 15.1077 19.7866 15.0165 19.5117C14.9526 19.3091 14.8437 19.1236 14.6981 18.9689C14.5795 18.8286 14.4478 18.7142 14.2929 18.5623C13.9818 18.2584 13.6098 17.9458 13.2509 17.6115C12.9514 17.3307 12.6952 17.0268 12.4839 16.7981C12.7878 16.7344 13.1641 16.6722 13.5693 16.6172C14.0541 16.5507 14.5404 16.5043 14.9702 16.4363C15.1859 16.4016 15.3798 16.3451 15.5578 16.3003C15.7372 16.2554 15.8675 16.2467 16.1019 16.0745C16.3349 15.9009 16.3668 15.7793 16.4637 15.6215C16.5593 15.4652 16.6823 15.2742 16.7792 15.0788C16.9732 14.6895 17.1599 14.2568 17.3668 13.8125C17.5419 13.4406 17.7141 13.1352 17.8646 12.8632ZM8.68352 33.3499C8.7576 33.4835 8.86798 33.5934 9.0019 33.6669C9.21609 33.7928 9.35358 33.7537 9.4983 33.758C9.64302 33.758 9.78774 33.7291 9.95128 33.7117C10.2769 33.677 10.6648 33.6423 11.0367 33.5771C11.4072 33.512 11.7458 33.4353 12.0309 33.3962C12.1728 33.3774 12.3117 33.3528 12.3927 33.3499C12.3971 33.3586 12.4072 33.3658 12.4376 33.3962C12.4984 33.4512 12.6113 33.5135 12.7097 33.622C12.8443 33.7711 12.9948 34.0055 13.1612 34.2096L10.8543 38.4152L10.2668 36.1995C10.2079 36.0168 10.0815 35.8635 9.91335 35.771C9.74522 35.6785 9.54808 35.6536 9.36226 35.7016L7.0554 36.2907L8.68352 33.3499ZM23.5638 33.3499C23.4668 33.3861 23.5276 33.3499 23.6086 33.3499C23.6897 33.3499 23.8286 33.3774 23.9704 33.3962C24.2541 33.4353 24.5942 33.512 24.9661 33.5771C25.3366 33.6423 25.7245 33.6755 26.0515 33.7117C26.2136 33.7291 26.3584 33.7609 26.5031 33.758C26.6478 33.758 26.7853 33.7913 27.0009 33.6669C27.0718 33.6249 27.0906 33.5771 27.1355 33.5308L28.7188 36.2907L26.4582 35.7016C26.2724 35.6536 26.0753 35.6785 25.9071 35.771C25.739 35.8635 25.6126 36.0168 25.5537 36.1995L24.9647 38.4615L22.7041 34.3905C22.901 34.1546 23.0775 33.9028 23.2468 33.7117C23.3568 33.5887 23.448 33.4614 23.5189 33.3962C23.5884 33.3297 23.6709 33.3108 23.5638 33.3499Z"
        fill="CurrentColor"
      />
    </svg>