<svg
      xmlns="http://www.w3.org/2000/svg"
      width="25"
      height="32"
      viewBox="0 0 32 25"
      fill="none"
    >
      <path
        d="M30.3111 10.4375H1.68889C0.756141 10.4375 0 11.1936 0 12.1264V12.3042C0 13.2369 0.756141 13.9931 1.68889 13.9931H30.3111C31.2439 13.9931 32 13.2369 32 12.3042V12.1264C32 11.1936 31.2439 10.4375 30.3111 10.4375Z"
        fill="black"
      />
      <path
        d="M30.3111 20.875H1.68889C0.756141 20.875 0 21.6311 0 22.5639V22.7417C0 23.6744 0.756141 24.4306 1.68889 24.4306H30.3111C31.2439 24.4306 32 23.6744 32 22.7417V22.5639C32 21.6311 31.2439 20.875 30.3111 20.875Z"
        fill="black"
      />
      <path
        d="M30.3111 0H1.68889C0.756141 0 0 0.756141 0 1.68889V1.86667C0 2.79941 0.756141 3.55556 1.68889 3.55556H30.3111C31.2439 3.55556 32 2.79941 32 1.86667V1.68889C32 0.756141 31.2439 0 30.3111 0Z"
        fill="black"
      />
    </svg>