<svg
      xmlns="http://www.w3.org/2000/svg"
      width="24"
      height="24"
      viewBox="0 0 19 20"
      fill="none"
    >
      <path
        d="M14.1178 12.485L12.6123 13.4174C12.4316 13.5292 12.2226 13.573 12.0172 13.542C11.8118 13.5109 11.6213 13.4069 11.4748 13.2456L6.45008 7.72138C6.30354 7.56018 6.20896 7.35072 6.18075 7.12492C6.15254 6.89913 6.19226 6.66939 6.29385 6.47072L7.14198 4.81558C7.29464 4.51769 7.35441 4.17304 7.31216 3.83429C7.26991 3.49553 7.12795 3.1813 6.90799 2.93959L4.6516 0.458854C4.51935 0.313384 4.36233 0.197987 4.1895 0.119255C4.01668 0.0405233 3.83144 0 3.64436 0C3.45729 0 3.27205 0.0405233 3.09922 0.119255C2.92639 0.197987 2.76937 0.313384 2.63712 0.458854L1.6126 1.58445C1.0135 2.24311 0.631879 3.10307 0.528428 4.0276C0.424977 4.95213 0.605632 5.88815 1.04167 6.68682L1.55573 7.62877C4.18091 12.439 7.88628 16.4269 12.3164 19.21L12.4179 19.2741C13.9313 20.2248 15.8011 19.9478 17.0128 18.6164L18.0826 17.4401C18.215 17.2947 18.3199 17.1221 18.3915 16.9321C18.4631 16.7421 18.5 16.5384 18.5 16.3327C18.5 16.127 18.4631 15.9234 18.3915 15.7334C18.3199 15.5434 18.215 15.3707 18.0826 15.2253L15.8248 12.743C15.605 12.5009 15.3191 12.3445 15.0108 12.2979C14.7025 12.2513 14.3889 12.317 14.1178 12.485Z"
        fill="currentColor"
      />
    </svg>