    <svg
      xmlns="http://www.w3.org/2000/svg"
     width="24"
      height="24"
      viewBox="0 0 37 33"
      fill="none"
    >
      <path
        d="M34.7749 2.16849H31.2718V1.15639C31.2718 0.517577 30.7017 0 29.9982 0H27.7686C27.065 0 26.495 0.517577 26.495 1.15639V2.16849H9.77622V1.15639C9.77622 0.517577 9.20619 0 8.50263 0H6.27307C5.56951 0 4.99947 0.517577 4.99947 1.15639V2.16862H1.49625C0.79269 2.16862 0.222656 2.68619 0.222656 3.32501V9.68662C0.222656 10.3254 0.79269 10.843 1.49625 10.843H4.9994V11.8552C4.9994 12.4941 5.56944 13.0116 6.273 13.0116H8.50255C9.20612 13.0116 9.77615 12.4941 9.77615 11.8552V10.843H13.3588V23.8546H12.2441C11.5405 23.8546 10.9705 24.3722 10.9705 25.011V27.0354C10.9705 27.6742 11.5405 28.1918 12.2441 28.1918H13.3589V31.3725C13.3589 32.0114 13.9289 32.5289 14.6325 32.5289H21.6389C22.3419 32.5289 22.9125 32.0112 22.9125 31.3725V28.1918H24.0273C24.7303 28.1918 25.3009 27.6741 25.3009 27.0354V25.011C25.3009 24.3723 24.7303 23.8546 24.0273 23.8546H22.9124V10.8429H26.495V11.8552C26.495 12.494 27.065 13.0116 27.7686 13.0116H29.9982C30.7017 13.0116 31.2718 12.494 31.2718 11.8552V10.8429H34.7749C35.4785 10.8429 36.0485 10.3253 36.0485 9.6865V3.32488C36.0486 2.68606 35.4785 2.16849 34.7749 2.16849ZM1.49625 9.75871C1.45222 9.75871 1.41686 9.72654 1.41686 9.68662V3.32501C1.41686 3.28503 1.45229 3.25293 1.49625 3.25293H4.9994V9.75871H1.49625ZM8.58202 11.8552C8.58202 11.8952 8.54659 11.9273 8.50263 11.9273H6.27307C6.22903 11.9273 6.19368 11.8951 6.19368 11.8552V10.3008V2.71074V1.15639C6.19368 1.11641 6.22911 1.08431 6.27307 1.08431H8.50263C8.54666 1.08431 8.58202 1.11648 8.58202 1.15639V2.71061V10.3007V11.8552ZM21.7183 31.3725C21.7183 31.4122 21.6826 31.4446 21.6389 31.4446H14.6326C14.5885 31.4446 14.5532 31.4124 14.5532 31.3725V28.1917H21.7183V31.3725ZM24.1067 25.0109V27.0353C24.1067 27.075 24.071 27.1074 24.0273 27.1074H22.3154H13.956H12.2442C12.2001 27.1074 12.1648 27.0752 12.1648 27.0353V25.0109C12.1648 24.9709 12.2002 24.9388 12.2442 24.9388H13.9559H22.3153H24.0273C24.071 24.9388 24.1067 24.9712 24.1067 25.0109ZM22.3153 9.75858H19.3298C19 9.75858 18.7327 10.0013 18.7327 10.3007C18.7327 10.6001 19.0001 10.8428 19.3298 10.8428H21.7182V23.8545H14.553V10.8429H15.7472C16.077 10.8429 16.3443 10.6002 16.3443 10.3008C16.3443 10.0014 16.077 9.75865 15.7472 9.75865H13.956H9.77629V3.2528H26.495V9.75858H22.3153ZM30.0776 11.8552C30.0776 11.8952 30.0421 11.9273 29.9982 11.9273H27.7686C27.7246 11.9273 27.6892 11.8951 27.6892 11.8552V10.3007V2.71061V1.15639C27.6892 1.11641 27.7246 1.08431 27.7686 1.08431H29.9982C30.0422 1.08431 30.0776 1.11648 30.0776 1.15639V2.71061V10.3007V11.8552ZM34.8544 9.6865C34.8544 9.72648 34.8189 9.75858 34.775 9.75858H31.2718V3.2528H34.775C34.819 3.2528 34.8544 3.28496 34.8544 3.32488V9.6865Z"
        fill="CurrentColor"
      />
    </svg>