<?xml version="1.0" encoding="UTF-8" standalone="no"?> <svg width="64" height="64" viewBox="0 0 64 64" fill="none" xmlns="http://www.w3.org/2000/svg">
<path d="M61 37H51V35C51 34.7348 50.8946 34.4804 50.7071 34.2929C50.5196 34.1054 50.2652 34 50 34H44C43.7348 34 43.4804 34.1054 43.2929 34.2929C43.1054 34.4804 43 34.7348 43 35V37H41V33.86C41.9419 33.6176 42.7629 33.0398 43.309 32.235C43.8551 31.4302 44.0887 30.4538 43.9659 29.489C43.8432 28.5243 43.3725 27.6374 42.6423 26.995C41.9121 26.3526 40.9726 25.9988 40 26H38V21C38 20.7348 37.8946 20.4804 37.7071 20.2929C37.5196 20.1054 37.2652 20 37 20H36V18H41C41.1852 18.0021 41.3672 17.9516 41.5248 17.8542C41.6824 17.7568 41.8091 17.6166 41.89 17.45L43.62 14H55C55.2652 14 55.5196 13.8946 55.7071 13.7071C55.8946 13.5196 56 13.2652 56 13V9C56 8.73479 55.8946 8.48043 55.7071 8.2929C55.5196 8.10536 55.2652 8 55 8H41C40.8148 7.99788 40.6328 8.04845 40.4752 8.14583C40.3176 8.24321 40.1909 8.38339 40.11 8.55L38.38 12H36V9C36 8.73479 35.8946 8.48043 35.7071 8.2929C35.5196 8.10536 35.2652 8 35 8H29C28.7348 8 28.4804 8.10536 28.2929 8.2929C28.1054 8.48043 28 8.73479 28 9V12H25C24.7348 12 24.4804 12.1054 24.2929 12.2929C24.1054 12.4804 24 12.7348 24 13V17C24 17.2652 24.1054 17.5196 24.2929 17.7071C24.4804 17.8946 24.7348 18 25 18H28V20H27C26.7348 20 26.4804 20.1054 26.2929 20.2929C26.1054 20.4804 26 20.7348 26 21V26H24C23.0274 25.9988 22.0879 26.3526 21.3577 26.995C20.6275 27.6374 20.1568 28.5243 20.0341 29.489C19.9113 30.4538 20.1449 31.4302 20.691 32.235C21.2371 33.0398 22.0581 33.6176 23 33.86V37H21V35C21 34.7348 20.8946 34.4804 20.7071 34.2929C20.5196 34.1054 20.2652 34 20 34H14C13.7348 34 13.4804 34.1054 13.2929 34.2929C13.1054 34.4804 13 34.7348 13 35V37H3C2.73478 37 2.48043 37.1054 2.29289 37.2929C2.10536 37.4804 2 37.7348 2 38V52C2 52.2652 2.10536 52.5196 2.29289 52.7071C2.48043 52.8946 2.73478 53 3 53H13V55C13 55.2652 13.1054 55.5196 13.2929 55.7071C13.4804 55.8946 13.7348 56 14 56H20C20.2652 56 20.5196 55.8946 20.7071 55.7071C20.8946 55.5196 21 55.2652 21 55V53H43V55C43 55.2652 43.1054 55.5196 43.2929 55.7071C43.4804 55.8946 43.7348 56 44 56H50C50.2652 56 50.5196 55.8946 50.7071 55.7071C50.8946 55.5196 51 55.2652 51 55V53H61C61.2652 53 61.5196 52.8946 61.7071 52.7071C61.8946 52.5196 62 52.2652 62 52V38C62 37.7348 61.8946 37.4804 61.7071 37.2929C61.5196 37.1054 61.2652 37 61 37ZM13 51H4V39H13V51ZM19 54H15V36H19V54ZM23 51H21V39H23V51ZM30 10H34V12H30V10ZM26 16V14H39C39.1852 14.0021 39.3672 13.9516 39.5248 13.8542C39.6824 13.7568 39.8091 13.6166 39.89 13.45L41.62 10H54V12H43C42.8148 11.9979 42.6328 12.0485 42.4752 12.1458C42.3176 12.2432 42.1909 12.3834 42.11 12.55L40.38 16H26ZM34 18V20H30V18H34ZM28 22H36V26H28V22ZM39 51H25V34H39V51ZM24 32C23.4696 32 22.9609 31.7893 22.5858 31.4142C22.2107 31.0391 22 30.5304 22 30C22 29.4696 22.2107 28.9609 22.5858 28.5858C22.9609 28.2107 23.4696 28 24 28H40C40.5304 28 41.0391 28.2107 41.4142 28.5858C41.7893 28.9609 42 29.4696 42 30C42 30.5304 41.7893 31.0391 41.4142 31.4142C41.0391 31.7893 40.5304 32 40 32H24ZM43 51H41V39H43V51ZM49 54H45V36H49V54ZM60 51H51V39H60V51Z" fill="black"/>
<path d="M8 41H6V43H8V41Z" fill="black"/>
<path d="M58 41H53V43H58V41Z" fill="black"/>
<path d="M29 47H27V49H29V47Z" fill="black"/>
<path d="M35 47H31V49H35V47Z" fill="black"/>
</svg>
