<svg xmlns="http://www.w3.org/2000/svg" viewBox="0 0 64 64"><g id="Layer_11" data-name="Layer 11"><path d="M60,34.17H58A25.83,25.83,0,0,0,38.75,10.08c0-9.4-13.55-9.39-13.5,0A25.83,25.83,0,0,0,6,34.17H4a1,1,0,0,0-1,1v5.17a1,1,0,0,0,1,1H9.74c1.38,7.73,7.57,14.18,15.79,16.43v.86A2.38,2.38,0,0,0,27.91,61h8.18a2.38,2.38,0,0,0,2.38-2.37v-.86c8.22-2.25,14.41-8.7,15.79-16.43H60a1,1,0,0,0,1-1V35.17A1,1,0,0,0,60,34.17Zm-5.74-8H47.4a1.34,1.34,0,0,1-.93-2.29,1.29,1.29,0,0,1,.93-.39H53A25.09,25.09,0,0,1,54.26,26.2Zm-27-16.47c.2-6.28,9.3-6.27,9.5,0V21.32h-9.5ZM11,23.52H16.6a1.34,1.34,0,0,1,.93,2.29,1.29,1.29,0,0,1-.93.39H9.74A25.09,25.09,0,0,1,11,23.52ZM9,28.2H16.6a3.32,3.32,0,0,0,2.35-1,3.36,3.36,0,0,0-2.35-5.71H12.24a23.81,23.81,0,0,1,13-9.36V22.32a1,1,0,0,0,1,1h11.5a1,1,0,0,0,1-1V12.16a23.81,23.81,0,0,1,13,9.36H47.4a3.32,3.32,0,0,0-2.35,1A3.36,3.36,0,0,0,47.4,28.2H55a24.61,24.61,0,0,1,1,6H8A24.61,24.61,0,0,1,9,28.2ZM36.47,58.63a.38.38,0,0,1-.38.37H27.91a.38.38,0,0,1-.38-.37v-2a.38.38,0,0,1,.38-.38h8.18a.38.38,0,0,1,.38.38Zm1.81-2.88a2.4,2.4,0,0,0-2.19-1.45H27.91a2.4,2.4,0,0,0-2.19,1.45c-7.18-2.09-12.61-7.69-13.95-14.41H52.23C50.89,48.06,45.46,53.66,38.28,55.75ZM59,39.34H5V36.17H59Z"/><path d="M32,6.25a3.75,3.75,0,0,0,0,7.5A3.75,3.75,0,0,0,32,6.25Zm0,5.5a1.75,1.75,0,0,1,0-3.5A1.75,1.75,0,0,1,32,11.75Z"/></g></svg>