<?xml version="1.0" encoding="UTF-8" standalone="no"?> <svg xmlns="http://www.w3.org/2000/svg" viewBox="0 0 48 48"><g id="Plunger"><path d="M46.122,1.879a3.073,3.073,0,0,0-4.243,0L19.359,24.4a2,2,0,0,0-1.924.51l-1.3,1.3A10.015,10.015,0,0,0,5.413,28.444c-.043.044-.078.091-.119.135a2.993,2.993,0,0,0-3.415,4.815L14.606,46.121a2.993,2.993,0,0,0,4.815-3.415c.043-.042.092-.077.135-.12a10.01,10.01,0,0,0,2.234-10.72l1.3-1.3a1.993,1.993,0,0,0,.51-1.923L46.121,6.121A3,3,0,0,0,46.122,1.879ZM17.435,44.707a1,1,0,0,1-1.414,0L3.293,31.979a1,1,0,0,1,1.414-1.415L17.435,43.293A1,1,0,0,1,17.435,44.707Zm.707-3.535L6.828,29.857h0A8,8,0,0,1,18.142,41.172Zm1.414-12.729A10.014,10.014,0,0,0,18,27.172l.849-.85,2.829,2.828-.85.85A10.075,10.075,0,0,0,19.556,28.443ZM44.707,4.707,22.385,27.029,20.97,25.615,43.293,3.293a1.021,1.021,0,0,1,1.414,0A1,1,0,0,1,44.707,4.707Z"/></g></svg>