<svg xmlns="http://www.w3.org/2000/svg" xml:space="preserve" width="1.70666in" height="1.70666in" version="1.1" style="shape-rendering:geometricPrecision; text-rendering:geometricPrecision; image-rendering:optimizeQuality; fill-rule:evenodd; clip-rule:evenodd" viewBox="0 0 1707 1707" xmlns:xlink="http://www.w3.org/1999/xlink">
 <defs>
  <style type="text/css">
   
    .fil0 {fill:#0B3E3E}
   
  </style>
 </defs>
 <g id="Layer_x0020_1">
  <metadata id="CorelCorpID_0Corel-Layer"></metadata>
  <path class="fil0" d="M1605 1170l-457 0 0 247c0,12 -10,23 -23,23l-203 0 0 244c0,12 -10,22 -23,22l-147 0c-12,0 -22,-10 -22,-22l0 -244 -233 0 0 244c0,12 -10,22 -22,22l-147 0c-13,0 -23,-10 -23,-22l0 -244 -203 0c-13,0 -23,-11 -23,-23l0 -1237c0,-133 288,-180 534,-180 247,0 535,47 535,180l0 712 202 0 0 -308c0,-30 45,-30 45,0l0 330c0,13 -10,23 -23,23l-224 0 0 187 434 0 0 -540c0,-30 46,-30 46,0l0 563c0,12 -10,23 -23,23zm-1481 224l979 0 0 -90 -979 0 0 90zm979 -136l0 -921 -979 0 0 921 979 0zm-979 -966l979 0 0 -112c0,-75 -215,-134 -490,-134 -274,0 -489,59 -489,134l0 112zm651 1369l102 0 0 -221 -102 0 0 221zm-425 0l102 0 0 -221 -102 0 0 221zm528 -454l-529 0c-13,0 -23,-10 -23,-23l0 -234c0,-13 10,-23 23,-23l529 0c13,0 23,10 23,23l0 234c0,13 -10,23 -23,23zm-507 -45l484 0 0 -189 -484 0 0 189zm116 -31c-84,0 -85,-128 0,-128 84,0 84,128 0,128zm0 -82c-25,0 -25,37 0,37 24,0 24,-37 0,-37zm253 82c-84,0 -84,-128 0,-128 84,0 84,128 0,128zm0 -82c-24,0 -24,37 0,37 25,0 25,-37 0,-37zm-301 -284c-13,0 -23,-10 -23,-22l0 -221c0,-30 45,-30 45,0l0 221c0,12 -10,22 -22,22zm174 67c-12,0 -22,-10 -22,-23l0 -354c0,-30 45,-30 45,0l0 354c0,13 -10,23 -23,23zm175 -67c-12,0 -22,-10 -22,-22l0 -221c0,-30 45,-30 45,0l0 221c0,12 -10,22 -23,22zm130 -574l-609 0c-30,0 -30,-45 0,-45l609 0c30,0 30,45 0,45z" id="id_101" style="fill: rgb(3, 3, 3);"></path>
 </g>
</svg>