<svg
      xmlns="http://www.w3.org/2000/svg"
     width="24"
      height="24"
      viewBox="0 0 82 82"
      fill="currentColor"
    >
      <mask
        id="path-1-outside-1_72_4399"
        maskUnits="userSpaceOnUse"
        x="0"
        y="0"
     width="24"
      height="24"
        fill="currentColor"
      >
        <rect fill="currentColor" width="82" height="82" />
        <path
          fillRule="evenodd"
          clipRule="evenodd"
          d="M38.192 1.17291C37.4613 1.4644 36.7755 2.11362 36.3855 2.88329L35.9944 3.65467H29.8529C23.1303 3.65467 22.8506 3.68669 21.7667 4.57976C21.0587 5.16338 20.3838 6.4187 20.2727 7.35911C20.0877 8.92624 20.9565 10.5616 22.4057 11.3741L23.2651 11.8559L29.682 11.9029L36.099 11.9497L36.288 12.4727C36.5591 13.2221 37.7249 14.2383 38.5739 14.4653L39.2811 14.6544V16.7961V18.9378L36.5857 18.9909C33.9953 19.0421 33.855 19.0615 32.9845 19.4874C31.8936 20.0211 30.6976 21.1763 30.2245 22.1533L29.8781 22.8689H25.5556H21.2332L20.6866 22.1367C19.9424 21.1398 19.0327 20.6819 17.7963 20.6819C16.5598 20.6819 15.6501 21.1398 14.9059 22.1367L14.3593 22.8689H8.32748C2.11205 22.8689 1.45907 22.9264 1.15203 23.4998C0.885931 23.9969 0.977652 24.6689 1.36063 25.0287C1.71954 25.3658 1.76954 25.3683 8.00138 25.3683H14.2806V30.9139V36.4594H8.28811C2.1133 36.4594 1.45875 36.5173 1.15203 37.0904C0.885931 37.5875 0.977652 38.2595 1.36063 38.6193C1.7197 38.9564 1.76814 38.9589 8.05623 38.9589H14.3901L14.8603 39.7151C16.1651 41.8137 19.4274 41.8137 20.7323 39.7151L21.2024 38.9589H25.5275H29.8524L30.2206 39.7446C30.6912 40.7491 31.9965 41.9839 33.1477 42.5137C33.9245 42.8711 34.3047 42.9361 35.9493 42.9923C37.8245 43.0565 37.8579 43.0515 38.254 42.6555C38.7373 42.1723 38.7801 41.4898 38.3598 40.9709C38.0879 40.6353 37.9104 40.5979 36.2113 40.5171C34.2219 40.4226 33.7508 40.2706 33.0001 39.4805C32.0962 38.5291 32.0934 38.5021 32.0934 30.9126C32.0934 24.3679 32.1114 23.9152 32.3915 23.3703C32.7405 22.6924 33.3748 22.0697 34.0778 21.7151C34.5203 21.492 35.5869 21.463 43.3421 21.463C51.6594 21.463 52.1358 21.4781 52.686 21.761C53.368 22.1119 53.9752 22.7325 54.3807 23.4937C54.6521 24.0032 54.672 24.5052 54.672 30.8358C54.672 38.2664 54.6621 38.3582 53.7584 39.3874C52.8024 40.4757 52.5857 40.5137 47.3101 40.5176C42.7889 40.5208 42.5883 40.5336 42.1928 40.8448C41.605 41.3069 41.6111 42.2392 42.205 42.7063C42.6208 43.0332 42.7238 43.0387 47.6348 42.9909L52.6407 42.9423L53.5396 42.5211C54.6964 41.9792 55.9984 40.7441 56.4667 39.7446L56.8348 38.9589H59.6152C62.2042 38.9589 62.4067 38.9796 62.5573 39.261C62.6595 39.4519 62.719 41.4667 62.719 44.7284V49.8938L62.3674 49.8944C61.8537 49.8952 61.0433 50.4404 60.6869 51.0249C60.4222 51.4587 60.3763 51.8136 60.3758 53.4245C60.3752 55.1305 60.4099 55.3669 60.7299 55.8458C61.4694 56.9526 61.1951 56.9229 70.6879 56.9229C80.1808 56.9229 79.9064 56.9526 80.6459 55.8458C80.9659 55.3669 81.0006 55.1305 81 53.4245C80.9995 51.8136 80.9536 51.4587 80.6889 51.0249C80.3325 50.4404 79.5221 49.8952 79.0084 49.8944C78.6621 49.8938 78.6568 49.8636 78.6568 47.8902C78.6568 45.998 78.6367 45.8679 78.2952 45.547C77.8388 45.1184 77.1027 45.109 76.6551 45.5259C76.3385 45.8207 76.313 45.9897 76.313 47.791V49.7376H70.6879H65.0628V44.1842C65.0628 38.1623 65.0676 38.1997 64.1783 37.3767C63.3362 36.5977 63.1209 36.5515 60.0236 36.4869L57.0939 36.4257V30.8851V25.3446L62.8362 25.4024L68.5785 25.4602L69.8407 25.8812C72.1083 26.6375 74.0219 28.2618 75.1255 30.3671C76.1194 32.2629 76.1886 32.6775 76.2947 37.3706C76.3847 41.3556 76.4113 41.6551 76.6944 41.8618C77.1433 42.1894 77.9765 42.1384 78.3548 41.7602C78.669 41.4461 78.6765 41.3122 78.6282 36.8786L78.5787 32.3198L78.0888 30.9512C77.3973 29.0185 76.7426 27.995 75.2193 26.464C73.7077 24.9448 72.4242 24.1347 70.6098 23.555C68.8708 22.9992 67.2833 22.878 61.6782 22.8731L56.8092 22.8689L56.4628 22.1533C55.9897 21.1763 54.7937 20.0211 53.7027 19.4874C52.8323 19.0615 52.6919 19.0421 50.1016 18.9909L47.4062 18.9378V16.7961V14.6544L48.1134 14.4653C48.9659 14.2373 50.1284 13.2212 50.4021 12.4648L50.5941 11.934H56.6281C63.5311 11.934 63.8229 11.8944 65.0126 10.798C66.3117 9.60077 66.7205 8.19219 66.2442 6.55399C66.0472 5.87665 65.7981 5.4683 65.2434 4.9139C63.9967 3.66748 63.9112 3.65467 56.8325 3.65467H50.6891L50.3581 2.95077C49.9959 2.18048 49.3256 1.5372 48.544 1.20962C47.9329 0.953584 38.8226 0.921248 38.192 1.17291ZM39.1279 3.53891C38.3921 3.91867 38.336 4.25093 38.3804 7.9735C38.4179 11.1229 38.4484 11.4627 38.7193 11.7617C39.0082 12.0805 39.1451 12.0902 43.3436 12.0902C47.5437 12.0902 47.679 12.0805 47.9679 11.7614C48.2428 11.4577 48.2656 11.1526 48.2656 7.78229C48.2656 4.19282 48.2597 4.12612 47.91 3.7762C47.5606 3.4266 47.4832 3.41957 43.5349 3.37958C40.5073 3.34896 39.4198 3.38817 39.1279 3.53891ZM23.2495 6.6852C22.5478 7.38676 22.5223 8.11674 23.174 8.84626L23.6298 9.35645L29.8148 9.40066L35.9997 9.44487V7.79947V6.15408H29.8902H23.7808L23.2495 6.6852ZM50.6875 7.79947V9.44487L56.8725 9.40066L63.0574 9.35645L63.5132 8.84626C64.0076 8.29295 64.0951 7.69512 63.7823 7.00888C63.4014 6.17298 63.2445 6.15408 56.7111 6.15408H50.6875V7.79947ZM41.7811 16.7766V18.9636H43.3436H44.9062V16.7766V14.5896H43.3436H41.7811V16.7766ZM17.2995 23.2108C16.6397 23.5298 16.6126 23.8643 16.6587 31.1757C16.7001 37.7762 16.7183 38.1626 17.0002 38.474C17.1842 38.6772 17.4881 38.8027 17.7963 38.8027C18.1044 38.8027 18.4083 38.6772 18.5924 38.474C18.8743 38.1626 18.8924 37.7762 18.9338 31.1757C18.9641 26.3756 18.9242 24.0774 18.8061 23.7921C18.7117 23.5644 18.4602 23.2986 18.2471 23.2016C17.7922 22.9943 17.7464 22.9948 17.2995 23.2108ZM21.312 30.9139V36.4594H25.4527H29.5934V30.9139V25.3683H25.4527H21.312V30.9139ZM62.719 53.3305V54.424H70.6879H78.6568V53.3305V52.237H70.6879H62.719V53.3305ZM70.2195 60.4794C69.561 60.5953 66.0522 64.451 64.4654 66.802C62.7298 69.3736 61.9868 71.4131 62.1499 73.1589C62.4723 76.6092 64.8267 79.5617 68.0788 80.5934C73.2995 82.2499 78.7148 78.6581 79.222 73.2024C79.4798 70.4283 77.7234 67.241 73.1956 62.2665C71.6501 60.5686 71.2107 60.3048 70.2195 60.4794ZM69.3546 64.6367C67.2274 66.9606 65.6822 69.1958 64.9495 71.0094C63.4129 74.8126 67.3269 79.1608 71.6592 78.4633C74.3978 78.0223 76.5026 75.729 76.7396 72.9276C76.8624 71.4762 76.0947 69.7874 74.102 67.125C73.0955 65.7801 70.8906 63.3281 70.6879 63.3281C70.6135 63.3281 70.0135 63.9171 69.3546 64.6367Z"
        />
      </mask>
      <path
        fillRule="evenodd"
        clipRule="evenodd"
        d="M38.192 1.17291C37.4613 1.4644 36.7755 2.11362 36.3855 2.88329L35.9944 3.65467H29.8529C23.1303 3.65467 22.8506 3.68669 21.7667 4.57976C21.0587 5.16338 20.3838 6.4187 20.2727 7.35911C20.0877 8.92624 20.9565 10.5616 22.4057 11.3741L23.2651 11.8559L29.682 11.9029L36.099 11.9497L36.288 12.4727C36.5591 13.2221 37.7249 14.2383 38.5739 14.4653L39.2811 14.6544V16.7961V18.9378L36.5857 18.9909C33.9953 19.0421 33.855 19.0615 32.9845 19.4874C31.8936 20.0211 30.6976 21.1763 30.2245 22.1533L29.8781 22.8689H25.5556H21.2332L20.6866 22.1367C19.9424 21.1398 19.0327 20.6819 17.7963 20.6819C16.5598 20.6819 15.6501 21.1398 14.9059 22.1367L14.3593 22.8689H8.32748C2.11205 22.8689 1.45907 22.9264 1.15203 23.4998C0.885931 23.9969 0.977652 24.6689 1.36063 25.0287C1.71954 25.3658 1.76954 25.3683 8.00138 25.3683H14.2806V30.9139V36.4594H8.28811C2.1133 36.4594 1.45875 36.5173 1.15203 37.0904C0.885931 37.5875 0.977652 38.2595 1.36063 38.6193C1.7197 38.9564 1.76814 38.9589 8.05623 38.9589H14.3901L14.8603 39.7151C16.1651 41.8137 19.4274 41.8137 20.7323 39.7151L21.2024 38.9589H25.5275H29.8524L30.2206 39.7446C30.6912 40.7491 31.9965 41.9839 33.1477 42.5137C33.9245 42.8711 34.3047 42.9361 35.9493 42.9923C37.8245 43.0565 37.8579 43.0515 38.254 42.6555C38.7373 42.1723 38.7801 41.4898 38.3598 40.9709C38.0879 40.6353 37.9104 40.5979 36.2113 40.5171C34.2219 40.4226 33.7508 40.2706 33.0001 39.4805C32.0962 38.5291 32.0934 38.5021 32.0934 30.9126C32.0934 24.3679 32.1114 23.9152 32.3915 23.3703C32.7405 22.6924 33.3748 22.0697 34.0778 21.7151C34.5203 21.492 35.5869 21.463 43.3421 21.463C51.6594 21.463 52.1358 21.4781 52.686 21.761C53.368 22.1119 53.9752 22.7325 54.3807 23.4937C54.6521 24.0032 54.672 24.5052 54.672 30.8358C54.672 38.2664 54.6621 38.3582 53.7584 39.3874C52.8024 40.4757 52.5857 40.5137 47.3101 40.5176C42.7889 40.5208 42.5883 40.5336 42.1928 40.8448C41.605 41.3069 41.6111 42.2392 42.205 42.7063C42.6208 43.0332 42.7238 43.0387 47.6348 42.9909L52.6407 42.9423L53.5396 42.5211C54.6964 41.9792 55.9984 40.7441 56.4667 39.7446L56.8348 38.9589H59.6152C62.2042 38.9589 62.4067 38.9796 62.5573 39.261C62.6595 39.4519 62.719 41.4667 62.719 44.7284V49.8938L62.3674 49.8944C61.8537 49.8952 61.0433 50.4404 60.6869 51.0249C60.4222 51.4587 60.3763 51.8136 60.3758 53.4245C60.3752 55.1305 60.4099 55.3669 60.7299 55.8458C61.4694 56.9526 61.1951 56.9229 70.6879 56.9229C80.1808 56.9229 79.9064 56.9526 80.6459 55.8458C80.9659 55.3669 81.0006 55.1305 81 53.4245C80.9995 51.8136 80.9536 51.4587 80.6889 51.0249C80.3325 50.4404 79.5221 49.8952 79.0084 49.8944C78.6621 49.8938 78.6568 49.8636 78.6568 47.8902C78.6568 45.998 78.6367 45.8679 78.2952 45.547C77.8388 45.1184 77.1027 45.109 76.6551 45.5259C76.3385 45.8207 76.313 45.9897 76.313 47.791V49.7376H70.6879H65.0628V44.1842C65.0628 38.1623 65.0676 38.1997 64.1783 37.3767C63.3362 36.5977 63.1209 36.5515 60.0236 36.4869L57.0939 36.4257V30.8851V25.3446L62.8362 25.4024L68.5785 25.4602L69.8407 25.8812C72.1083 26.6375 74.0219 28.2618 75.1255 30.3671C76.1194 32.2629 76.1886 32.6775 76.2947 37.3706C76.3847 41.3556 76.4113 41.6551 76.6944 41.8618C77.1433 42.1894 77.9765 42.1384 78.3548 41.7602C78.669 41.4461 78.6765 41.3122 78.6282 36.8786L78.5787 32.3198L78.0888 30.9512C77.3973 29.0185 76.7426 27.995 75.2193 26.464C73.7077 24.9448 72.4242 24.1347 70.6098 23.555C68.8708 22.9992 67.2833 22.878 61.6782 22.8731L56.8092 22.8689L56.4628 22.1533C55.9897 21.1763 54.7937 20.0211 53.7027 19.4874C52.8323 19.0615 52.6919 19.0421 50.1016 18.9909L47.4062 18.9378V16.7961V14.6544L48.1134 14.4653C48.9659 14.2373 50.1284 13.2212 50.4021 12.4648L50.5941 11.934H56.6281C63.5311 11.934 63.8229 11.8944 65.0126 10.798C66.3117 9.60077 66.7205 8.19219 66.2442 6.55399C66.0472 5.87665 65.7981 5.4683 65.2434 4.9139C63.9967 3.66748 63.9112 3.65467 56.8325 3.65467H50.6891L50.3581 2.95077C49.9959 2.18048 49.3256 1.5372 48.544 1.20962C47.9329 0.953584 38.8226 0.921248 38.192 1.17291ZM39.1279 3.53891C38.3921 3.91867 38.336 4.25093 38.3804 7.9735C38.4179 11.1229 38.4484 11.4627 38.7193 11.7617C39.0082 12.0805 39.1451 12.0902 43.3436 12.0902C47.5437 12.0902 47.679 12.0805 47.9679 11.7614C48.2428 11.4577 48.2656 11.1526 48.2656 7.78229C48.2656 4.19282 48.2597 4.12612 47.91 3.7762C47.5606 3.4266 47.4832 3.41957 43.5349 3.37958C40.5073 3.34896 39.4198 3.38817 39.1279 3.53891ZM23.2495 6.6852C22.5478 7.38676 22.5223 8.11674 23.174 8.84626L23.6298 9.35645L29.8148 9.40066L35.9997 9.44487V7.79947V6.15408H29.8902H23.7808L23.2495 6.6852ZM50.6875 7.79947V9.44487L56.8725 9.40066L63.0574 9.35645L63.5132 8.84626C64.0076 8.29295 64.0951 7.69512 63.7823 7.00888C63.4014 6.17298 63.2445 6.15408 56.7111 6.15408H50.6875V7.79947ZM41.7811 16.7766V18.9636H43.3436H44.9062V16.7766V14.5896H43.3436H41.7811V16.7766ZM17.2995 23.2108C16.6397 23.5298 16.6126 23.8643 16.6587 31.1757C16.7001 37.7762 16.7183 38.1626 17.0002 38.474C17.1842 38.6772 17.4881 38.8027 17.7963 38.8027C18.1044 38.8027 18.4083 38.6772 18.5924 38.474C18.8743 38.1626 18.8924 37.7762 18.9338 31.1757C18.9641 26.3756 18.9242 24.0774 18.8061 23.7921C18.7117 23.5644 18.4602 23.2986 18.2471 23.2016C17.7922 22.9943 17.7464 22.9948 17.2995 23.2108ZM21.312 30.9139V36.4594H25.4527H29.5934V30.9139V25.3683H25.4527H21.312V30.9139ZM62.719 53.3305V54.424H70.6879H78.6568V53.3305V52.237H70.6879H62.719V53.3305ZM70.2195 60.4794C69.561 60.5953 66.0522 64.451 64.4654 66.802C62.7298 69.3736 61.9868 71.4131 62.1499 73.1589C62.4723 76.6092 64.8267 79.5617 68.0788 80.5934C73.2995 82.2499 78.7148 78.6581 79.222 73.2024C79.4798 70.4283 77.7234 67.241 73.1956 62.2665C71.6501 60.5686 71.2107 60.3048 70.2195 60.4794ZM69.3546 64.6367C67.2274 66.9606 65.6822 69.1958 64.9495 71.0094C63.4129 74.8126 67.3269 79.1608 71.6592 78.4633C74.3978 78.0223 76.5026 75.729 76.7396 72.9276C76.8624 71.4762 76.0947 69.7874 74.102 67.125C73.0955 65.7801 70.8906 63.3281 70.6879 63.3281C70.6135 63.3281 70.0135 63.9171 69.3546 64.6367Z"
        fill="currentColor"
      />
      <path
        fillRule="evenodd"
        clipRule="evenodd"
        d="M38.192 1.17291C37.4613 1.4644 36.7755 2.11362 36.3855 2.88329L35.9944 3.65467H29.8529C23.1303 3.65467 22.8506 3.68669 21.7667 4.57976C21.0587 5.16338 20.3838 6.4187 20.2727 7.35911C20.0877 8.92624 20.9565 10.5616 22.4057 11.3741L23.2651 11.8559L29.682 11.9029L36.099 11.9497L36.288 12.4727C36.5591 13.2221 37.7249 14.2383 38.5739 14.4653L39.2811 14.6544V16.7961V18.9378L36.5857 18.9909C33.9953 19.0421 33.855 19.0615 32.9845 19.4874C31.8936 20.0211 30.6976 21.1763 30.2245 22.1533L29.8781 22.8689H25.5556H21.2332L20.6866 22.1367C19.9424 21.1398 19.0327 20.6819 17.7963 20.6819C16.5598 20.6819 15.6501 21.1398 14.9059 22.1367L14.3593 22.8689H8.32748C2.11205 22.8689 1.45907 22.9264 1.15203 23.4998C0.885931 23.9969 0.977652 24.6689 1.36063 25.0287C1.71954 25.3658 1.76954 25.3683 8.00138 25.3683H14.2806V30.9139V36.4594H8.28811C2.1133 36.4594 1.45875 36.5173 1.15203 37.0904C0.885931 37.5875 0.977652 38.2595 1.36063 38.6193C1.7197 38.9564 1.76814 38.9589 8.05623 38.9589H14.3901L14.8603 39.7151C16.1651 41.8137 19.4274 41.8137 20.7323 39.7151L21.2024 38.9589H25.5275H29.8524L30.2206 39.7446C30.6912 40.7491 31.9965 41.9839 33.1477 42.5137C33.9245 42.8711 34.3047 42.9361 35.9493 42.9923C37.8245 43.0565 37.8579 43.0515 38.254 42.6555C38.7373 42.1723 38.7801 41.4898 38.3598 40.9709C38.0879 40.6353 37.9104 40.5979 36.2113 40.5171C34.2219 40.4226 33.7508 40.2706 33.0001 39.4805C32.0962 38.5291 32.0934 38.5021 32.0934 30.9126C32.0934 24.3679 32.1114 23.9152 32.3915 23.3703C32.7405 22.6924 33.3748 22.0697 34.0778 21.7151C34.5203 21.492 35.5869 21.463 43.3421 21.463C51.6594 21.463 52.1358 21.4781 52.686 21.761C53.368 22.1119 53.9752 22.7325 54.3807 23.4937C54.6521 24.0032 54.672 24.5052 54.672 30.8358C54.672 38.2664 54.6621 38.3582 53.7584 39.3874C52.8024 40.4757 52.5857 40.5137 47.3101 40.5176C42.7889 40.5208 42.5883 40.5336 42.1928 40.8448C41.605 41.3069 41.6111 42.2392 42.205 42.7063C42.6208 43.0332 42.7238 43.0387 47.6348 42.9909L52.6407 42.9423L53.5396 42.5211C54.6964 41.9792 55.9984 40.7441 56.4667 39.7446L56.8348 38.9589H59.6152C62.2042 38.9589 62.4067 38.9796 62.5573 39.261C62.6595 39.4519 62.719 41.4667 62.719 44.7284V49.8938L62.3674 49.8944C61.8537 49.8952 61.0433 50.4404 60.6869 51.0249C60.4222 51.4587 60.3763 51.8136 60.3758 53.4245C60.3752 55.1305 60.4099 55.3669 60.7299 55.8458C61.4694 56.9526 61.1951 56.9229 70.6879 56.9229C80.1808 56.9229 79.9064 56.9526 80.6459 55.8458C80.9659 55.3669 81.0006 55.1305 81 53.4245C80.9995 51.8136 80.9536 51.4587 80.6889 51.0249C80.3325 50.4404 79.5221 49.8952 79.0084 49.8944C78.6621 49.8938 78.6568 49.8636 78.6568 47.8902C78.6568 45.998 78.6367 45.8679 78.2952 45.547C77.8388 45.1184 77.1027 45.109 76.6551 45.5259C76.3385 45.8207 76.313 45.9897 76.313 47.791V49.7376H70.6879H65.0628V44.1842C65.0628 38.1623 65.0676 38.1997 64.1783 37.3767C63.3362 36.5977 63.1209 36.5515 60.0236 36.4869L57.0939 36.4257V30.8851V25.3446L62.8362 25.4024L68.5785 25.4602L69.8407 25.8812C72.1083 26.6375 74.0219 28.2618 75.1255 30.3671C76.1194 32.2629 76.1886 32.6775 76.2947 37.3706C76.3847 41.3556 76.4113 41.6551 76.6944 41.8618C77.1433 42.1894 77.9765 42.1384 78.3548 41.7602C78.669 41.4461 78.6765 41.3122 78.6282 36.8786L78.5787 32.3198L78.0888 30.9512C77.3973 29.0185 76.7426 27.995 75.2193 26.464C73.7077 24.9448 72.4242 24.1347 70.6098 23.555C68.8708 22.9992 67.2833 22.878 61.6782 22.8731L56.8092 22.8689L56.4628 22.1533C55.9897 21.1763 54.7937 20.0211 53.7027 19.4874C52.8323 19.0615 52.6919 19.0421 50.1016 18.9909L47.4062 18.9378V16.7961V14.6544L48.1134 14.4653C48.9659 14.2373 50.1284 13.2212 50.4021 12.4648L50.5941 11.934H56.6281C63.5311 11.934 63.8229 11.8944 65.0126 10.798C66.3117 9.60077 66.7205 8.19219 66.2442 6.55399C66.0472 5.87665 65.7981 5.4683 65.2434 4.9139C63.9967 3.66748 63.9112 3.65467 56.8325 3.65467H50.6891L50.3581 2.95077C49.9959 2.18048 49.3256 1.5372 48.544 1.20962C47.9329 0.953584 38.8226 0.921248 38.192 1.17291ZM39.1279 3.53891C38.3921 3.91867 38.336 4.25093 38.3804 7.9735C38.4179 11.1229 38.4484 11.4627 38.7193 11.7617C39.0082 12.0805 39.1451 12.0902 43.3436 12.0902C47.5437 12.0902 47.679 12.0805 47.9679 11.7614C48.2428 11.4577 48.2656 11.1526 48.2656 7.78229C48.2656 4.19282 48.2597 4.12612 47.91 3.7762C47.5606 3.4266 47.4832 3.41957 43.5349 3.37958C40.5073 3.34896 39.4198 3.38817 39.1279 3.53891ZM23.2495 6.6852C22.5478 7.38676 22.5223 8.11674 23.174 8.84626L23.6298 9.35645L29.8148 9.40066L35.9997 9.44487V7.79947V6.15408H29.8902H23.7808L23.2495 6.6852ZM50.6875 7.79947V9.44487L56.8725 9.40066L63.0574 9.35645L63.5132 8.84626C64.0076 8.29295 64.0951 7.69512 63.7823 7.00888C63.4014 6.17298 63.2445 6.15408 56.7111 6.15408H50.6875V7.79947ZM41.7811 16.7766V18.9636H43.3436H44.9062V16.7766V14.5896H43.3436H41.7811V16.7766ZM17.2995 23.2108C16.6397 23.5298 16.6126 23.8643 16.6587 31.1757C16.7001 37.7762 16.7183 38.1626 17.0002 38.474C17.1842 38.6772 17.4881 38.8027 17.7963 38.8027C18.1044 38.8027 18.4083 38.6772 18.5924 38.474C18.8743 38.1626 18.8924 37.7762 18.9338 31.1757C18.9641 26.3756 18.9242 24.0774 18.8061 23.7921C18.7117 23.5644 18.4602 23.2986 18.2471 23.2016C17.7922 22.9943 17.7464 22.9948 17.2995 23.2108ZM21.312 30.9139V36.4594H25.4527H29.5934V30.9139V25.3683H25.4527H21.312V30.9139ZM62.719 53.3305V54.424H70.6879H78.6568V53.3305V52.237H70.6879H62.719V53.3305ZM70.2195 60.4794C69.561 60.5953 66.0522 64.451 64.4654 66.802C62.7298 69.3736 61.9868 71.4131 62.1499 73.1589C62.4723 76.6092 64.8267 79.5617 68.0788 80.5934C73.2995 82.2499 78.7148 78.6581 79.222 73.2024C79.4798 70.4283 77.7234 67.241 73.1956 62.2665C71.6501 60.5686 71.2107 60.3048 70.2195 60.4794ZM69.3546 64.6367C67.2274 66.9606 65.6822 69.1958 64.9495 71.0094C63.4129 74.8126 67.3269 79.1608 71.6592 78.4633C74.3978 78.0223 76.5026 75.729 76.7396 72.9276C76.8624 71.4762 76.0947 69.7874 74.102 67.125C73.0955 65.7801 70.8906 63.3281 70.6879 63.3281C70.6135 63.3281 70.0135 63.9171 69.3546 64.6367Z"
        stroke="currentColor"
        strokeWidth="0.4"
        mask="url(#path-1-outside-1_72_4399)"
      />
    </svg>