<?xml version="1.0" encoding="UTF-8"?>
<!DOCTYPE svg PUBLIC "-//W3C//DTD SVG 1.1//EN" "http://www.w3.org/Graphics/SVG/1.1/DTD/svg11.dtd">
<!-- Creator: CorelDRAW -->
<svg xmlns="http://www.w3.org/2000/svg" xml:space="preserve" width="1.70666in" height="1.70666in" version="1.1" style="shape-rendering:geometricPrecision; text-rendering:geometricPrecision; image-rendering:optimizeQuality; fill-rule:evenodd; clip-rule:evenodd"
viewBox="0 0 1707 1707"
 xmlns:xlink="http://www.w3.org/1999/xlink">
 <defs>
  <style type="text/css">
   <![CDATA[
    .fil0 {fill:black}
   ]]>
  </style>
 </defs>
 <g id="Layer_x0020_1">
  <metadata id="CorelCorpID_0Corel-Layer"/>
  <path class="fil0" d="M1188 1024l-670 0c-35,0 -35,-53 0,-53l671 0c35,0 35,53 -1,53zm0 -146l-670 0c-35,0 -35,-53 0,-53l671 0c35,0 35,53 -1,53zm0 -146l-670 0c-35,0 -35,-53 0,-53l671 0c35,0 35,53 -1,53zm0 -145l-670 0c-35,0 -35,-53 0,-53l671 0c34,0 35,53 -1,53zm-195 797c-7,0 -14,-3 -19,-8l-58 -58c-25,-24 13,-62 37,-37l40 39 117 -118c25,-24 62,13 38,38l-136 136c-6,5 -12,8 -19,8zm39 125c-122,0 -220,-99 -220,-220 0,-121 98,-220 220,-220 121,0 220,99 220,220 0,121 -99,220 -220,220zm0 -387c-93,0 -168,75 -168,167 0,93 75,168 168,168 92,0 167,-75 167,-168 0,-92 -75,-167 -167,-167zm-179 -779c-55,0 -100,-44 -100,-100 0,-56 45,-101 100,-101 56,0 101,45 101,101 0,55 -45,100 -101,100zm0 -148c-62,0 -62,95 0,95 63,0 63,-95 0,-95zm-325 5l0 -34c0,-15 12,-27 26,-27l136 0c12,-79 82,-139 163,-139 82,0 151,60 163,139l136 0c15,0 27,12 27,27l0 34 210 0c57,0 103,47 103,103l0 1301c0,56 -47,102 -104,102l-1070 0c-57,0 -103,-46 -103,-102l0 -1301c0,-57 46,-103 103,-103l210 0zm642 249c-3,3 -7,5 -11,7l0 0 -1 0c-2,0 -4,1 -6,1l0 0 0 0 0 0 -598 0c-14,0 -26,-12 -26,-27l0 -62 -146 0 0 1171 942 0 0 -1171 -145 0 0 62 0 0 0 1 -1 0 0 0 0 0c0,1 0,2 0,2l0 1 0 0 0 1 0 0 0 0 0 0 0 1 0 0 0 1 0 0 -1 0 0 1 0 0 0 1 0 0 0 0 0 0 0 1 0 0 -1 0 0 0 0 1 0 0 0 0 0 1 0 0 0 0 -1 1 0 0 0 0 0 0 0 1 0 0 -1 0 0 0 0 1 0 0 0 0 0 0 -1 1 0 0 0 0 0 0 0 1 -1 0 0 0 0 0 0 1 0 0 -1 0 0 0 0 1 0 0 -1 0zm-45 -108l0 -149 -133 0c-15,0 -26,-12 -26,-26 0,-100 -123,-150 -192,-80 -46,47 -23,81 -41,98 -5,5 -11,8 -19,8l-133 0 0 31c0,1 0,2 0,4l0 177 544 0 0 -62 0 -1zm225 1251l-994 0c-15,0 -27,-12 -27,-27l0 -1223c0,-15 12,-27 27,-27l172 0 0 -62 -210 0c-28,0 -50,23 -50,50l0 1301c0,27 22,49 50,49l1071 0c27,0 50,-22 50,-49l0 -1301c0,-27 -23,-50 -50,-50l-210 0 0 62 171 0c15,0 27,12 27,27l0 1223c0,15 -12,27 -27,27zm-546 -131l-286 0c-35,0 -35,-53 0,-53l286 0c35,0 35,53 0,53zm-66 -145l-220 0c-35,0 -35,-53 0,-53l220 0c35,0 35,53 0,53zm66 -146l-286 0c-35,0 -35,-53 0,-53l286 0c35,0 35,53 0,53z"/>
 </g>
</svg>
