  <svg
      xmlns="http://www.w3.org/2000/svg"
      width="24"
      height="24"
      viewBox="0 0 37 36"
      fill="CurrentColor"
    >
      <path
        d="M18.143 34.875C8.88311 34.875 1.34961 27.3049 1.34961 18C1.34961 13.8983 2.83078 9.945 5.5222 6.86813C5.72708 6.63525 6.08086 6.61387 6.31261 6.8175C6.54436 7.02225 6.56675 7.37887 6.36411 7.61175C3.85182 10.4816 2.46917 14.1716 2.46917 18C2.46917 26.685 9.49999 33.75 18.143 33.75C26.786 33.75 33.8168 26.685 33.8168 18C33.8168 9.315 26.786 2.25 18.143 2.25C15.3396 2.25 12.59 3.0015 10.1908 4.42463C9.92766 4.57875 9.58284 4.49325 9.42498 4.2255C9.26712 3.95888 9.35557 3.6135 9.62314 3.45488C12.1936 1.9305 15.1392 1.125 18.143 1.125C27.4028 1.125 34.9363 8.69513 34.9363 18C34.9363 27.3049 27.4028 34.875 18.143 34.875Z"
        fill="CurrentColor"
      />
      <path
        d="M18.1429 32.0625C10.4258 32.0625 4.14844 25.7546 4.14844 18C4.14844 10.2454 10.4258 3.9375 18.1429 3.9375C25.86 3.9375 32.1374 10.2454 32.1374 18C32.1374 25.7546 25.86 32.0625 18.1429 32.0625ZM18.1429 5.0625C11.0438 5.0625 5.268 10.8664 5.268 18C5.268 25.1336 11.0438 30.9375 18.1429 30.9375C25.242 30.9375 31.0178 25.1336 31.0178 18C31.0178 10.8664 25.242 5.0625 18.1429 5.0625Z"
        fill="CurrentColor"
      />
      <path
        d="M23.4607 9.30406C23.3152 9.30406 23.1697 9.24781 23.0678 9.14656C22.9558 9.03406 22.901 8.88781 22.901 8.74156C22.901 8.59531 22.9569 8.44906 23.0678 8.34781C23.2805 8.13406 23.6511 8.13406 23.8515 8.34781C23.9645 8.44906 24.0194 8.59531 24.0194 8.74156C24.0194 8.88781 23.9645 9.03406 23.8526 9.13531C23.7518 9.24781 23.6063 9.30406 23.4607 9.30406ZM12.8249 27.8204C12.6794 27.8204 12.5339 27.7529 12.432 27.6528C12.32 27.5392 12.2652 27.3941 12.2652 27.2579C12.2652 27.1117 12.3211 26.9654 12.4219 26.8541C12.6346 26.6504 13.0153 26.6504 13.2168 26.8541C13.3299 26.9666 13.3847 27.1117 13.3847 27.2579C13.3847 27.3929 13.3287 27.5392 13.2269 27.6528C13.116 27.7541 12.9705 27.8204 12.8249 27.8204ZM27.3557 13.2191C27.2101 13.2191 27.0646 13.1628 26.9638 13.0604C26.8519 12.9479 26.7959 12.8028 26.7959 12.6566C26.7959 12.5103 26.853 12.3641 26.9538 12.2617C27.1766 12.0378 27.546 12.0491 27.7486 12.2617C27.8494 12.3641 27.9155 12.5103 27.9155 12.6566C27.9155 12.8028 27.8595 12.9491 27.7486 13.0503C27.6479 13.1628 27.5012 13.2191 27.3557 13.2191ZM8.92888 23.9066C8.78334 23.9066 8.64899 23.8503 8.53704 23.7479C8.42396 23.6253 8.3691 23.4791 8.3691 23.3441C8.3691 23.1978 8.42508 23.0628 8.52696 22.9492C8.77326 22.7253 9.11921 22.7366 9.33304 22.9492C9.4338 23.0516 9.48978 23.1978 9.48978 23.3441C9.48978 23.4903 9.4338 23.6366 9.33304 23.7378C9.21997 23.8503 9.08562 23.9066 8.92888 23.9066ZM28.7786 18.5628C28.6331 18.5628 28.4876 18.5066 28.3857 18.3941C28.2748 18.2928 28.2189 18.1466 28.2189 18.0003C28.2189 17.8541 28.2748 17.7078 28.3857 17.6054C28.5883 17.3928 28.9578 17.3928 29.1694 17.5942C29.2824 17.7078 29.3384 17.8541 29.3384 18.0003C29.3384 18.1466 29.2824 18.2928 29.1806 18.3941C29.0697 18.5066 28.9242 18.5628 28.7786 18.5628ZM7.50704 18.5628C7.3615 18.5628 7.21596 18.5066 7.11408 18.3941C7.00324 18.2928 6.94727 18.1466 6.94727 18.0003C6.94727 17.8541 7.00324 17.7078 7.11408 17.6054C7.31672 17.3928 7.68617 17.3928 7.89777 17.5942C8.01085 17.7078 8.06682 17.8541 8.06682 18.0003C8.06682 18.1466 8.01085 18.2928 7.90897 18.3941C7.79813 18.5066 7.65259 18.5628 7.50704 18.5628Z"
        fill="CurrentColor"
      />
      <path
        d="M27.3557 23.9102C27.2102 23.9102 27.0646 23.8539 26.9538 23.7515C26.853 23.639 26.7959 23.4939 26.7959 23.3477C26.7959 23.2014 26.853 23.0552 26.9538 22.9528C27.1766 22.7289 27.546 22.7402 27.7487 22.9528C27.8494 23.0552 27.9155 23.2014 27.9155 23.3477C27.9155 23.4939 27.8595 23.6402 27.7487 23.7414C27.6479 23.8539 27.5013 23.9102 27.3557 23.9102ZM8.92892 13.2227C8.78338 13.2227 8.64903 13.1664 8.53707 13.064C8.424 12.9414 8.36914 12.7952 8.36914 12.6602C8.36914 12.5139 8.42512 12.3789 8.527 12.2653C8.7733 12.0414 9.11924 12.0527 9.33308 12.2653C9.43384 12.3677 9.48982 12.5139 9.48982 12.6602C9.48982 12.8064 9.43384 12.9527 9.33308 13.0539C9.22 13.1664 9.07334 13.2227 8.92892 13.2227Z"
        fill="CurrentColor"
      />
      <path
        d="M23.4612 27.8219C23.3157 27.8219 23.1701 27.7656 23.0682 27.6644C22.9563 27.5406 22.9014 27.4056 22.9014 27.2594C22.9014 27.1131 22.9574 26.9669 23.0582 26.8555C23.2821 26.6418 23.6415 26.6519 23.853 26.8555C23.9661 26.968 24.021 27.1131 24.021 27.2594C24.021 27.3944 23.965 27.5406 23.8631 27.6542C23.7523 27.7667 23.6067 27.8219 23.4612 27.8219ZM12.8254 9.3055C12.6799 9.3055 12.5343 9.24925 12.4324 9.13787C12.3216 9.0355 12.2656 8.88812 12.2656 8.743C12.2656 8.59787 12.3216 8.4505 12.4324 8.34925C12.6351 8.1355 13.0045 8.1355 13.2161 8.338C13.3292 8.4505 13.3841 8.59562 13.3841 8.74187C13.3841 8.88812 13.3292 9.0355 13.2172 9.13675C13.1053 9.24925 12.9709 9.3055 12.8254 9.3055Z"
        fill="CurrentColor"
      />
      <path
        d="M18.1443 29.2539C17.9987 29.2539 17.8642 29.1977 17.751 29.0953C17.64 28.9727 17.584 28.8377 17.584 28.6914C17.584 28.5452 17.64 28.3989 17.7409 28.2965C17.9762 28.0727 18.3349 28.0839 18.5366 28.2965C18.6487 28.3989 18.7047 28.5452 18.7047 28.6914C18.7047 28.8377 18.6487 28.9839 18.5366 29.0852C18.4357 29.1977 18.29 29.2539 18.1443 29.2539ZM18.1443 7.8789C17.9987 7.8789 17.8642 7.82265 17.751 7.72028C17.64 7.6089 17.584 7.46265 17.584 7.3164C17.584 7.15778 17.64 7.0239 17.7409 6.92153C17.9762 6.69765 18.3349 6.7089 18.5366 6.92153C18.6487 7.0239 18.7047 7.17015 18.7047 7.3164C18.7047 7.46265 18.6487 7.6089 18.5467 7.71015C18.4357 7.82265 18.29 7.8789 18.1443 7.8789Z"
        fill="CurrentColor"
      />
      <path
        d="M25.2675 10.8427C25.0492 10.6233 24.6943 10.6233 24.476 10.8427L18.4158 16.9323C18.8088 17.0347 19.1054 17.3328 19.2073 17.7277L25.2675 11.6381C25.4869 11.4176 25.4869 11.0621 25.2675 10.8427ZM17.8695 16.9323L11.0178 10.0473C10.7994 9.82797 10.4445 9.82797 10.2262 10.0473C10.0079 10.2667 10.0079 10.6233 10.2262 10.8427L17.0779 17.7277C17.1798 17.3328 17.4765 17.0347 17.8695 16.9323Z"
        fill="CurrentColor"
      />
      <path
        d="M18.1422 19.6875C17.2164 19.6875 16.4629 18.9304 16.4629 18C16.4629 17.0696 17.2164 16.3125 18.1422 16.3125C19.0681 16.3125 19.8216 17.0696 19.8216 18C19.8216 18.9304 19.0681 19.6875 18.1422 19.6875ZM18.1422 17.4375C17.8343 17.4375 17.5824 17.6906 17.5824 18C17.5824 18.3094 17.8343 18.5625 18.1422 18.5625C18.4501 18.5625 18.702 18.3094 18.702 18C18.702 17.6906 18.4501 17.4375 18.1422 17.4375Z"
        fill="CurrentColor"
      />
      <path
        d="M8.62854 5.0625C8.62854 5.37188 8.37637 5.625 8.06817 5.625C7.75998 5.625 7.50781 5.37188 7.50781 5.0625C7.50781 4.75312 7.75998 4.5 8.06817 4.5C8.37637 4.5 8.62854 4.75312 8.62854 5.0625Z"
        fill="CurrentColor"
      />
    </svg>