<?xml version="1.0" encoding="utf-8"?>
<!-- Generator: Adobe Illustrator 17.0.0, SVG Export Plug-In . SVG Version: 6.00 Build 0)  -->
<!DOCTYPE svg PUBLIC "-//W3C//DTD SVG 1.1//EN" "http://www.w3.org/Graphics/SVG/1.1/DTD/svg11.dtd">
<svg version="1.1" id="icon" xmlns="http://www.w3.org/2000/svg" xmlns:xlink="http://www.w3.org/1999/xlink" x="0px" y="0px"
	 width="64px" height="64px" viewBox="0 0 128 128" enable-background="new 0 0 128 128" xml:space="preserve">
<g>
	<path fill="#231F20" d="M57.5,93.167h-19c-1.105,0-2-0.896-2-2s0.895-2,2-2h17v-16.5c0-1.104,0.895-2,2-2c1.104,0,2,0.896,2,2v18.5
		C59.5,92.271,58.604,93.167,57.5,93.167z"/>
	<path fill="#231F20" d="M38.5,89.167c-7.902,0-14.966-12.373-16.821-27.991c-1.133,0.781-2.8,0.752-4.042,0.054
		C19.628,79.434,28.226,93.167,38.5,93.167c1.104,0,2-0.896,2-2S39.604,89.167,38.5,89.167z"/>
	<path fill="#231F20" d="M97.5,14.167h-59c-10.682,0-19.289,13.711-20.988,32.255c1.406-0.309,2.722-0.039,3.983,0.51
		c1.502-16.119,8.677-28.765,17.004-28.765h59c9.374,0,17,15.701,17,35c0,1.104,0.895,2,2,2c1.104,0,2-0.896,2-2
		C118.5,31.298,109.275,14.167,97.5,14.167z"/>
	<path fill="#231F20" d="M38.352,32.292c-5.007,0-8.022,7.297-8.888,15.734c0.308-0.099,0.621-0.182,0.939-0.234
		c1.183-0.196,2.201-0.006,3.038,0.631c0.794-7.879,3.437-12.131,4.911-12.131c1.747,0,5.148,5.956,5.148,16.875
		s-3.401,16.875-5.148,16.875c-1.458,0-4.059-4.157-4.885-11.868c-0.093,0.052-0.167,0.12-0.266,0.166
		c-1.171,0.533-2.375,0.75-3.662,0.661c0.957,8.14,3.943,15.041,8.813,15.041c6.006,0,9.148-10.501,9.148-20.875
		S44.357,32.292,38.352,32.292z"/>
	<path fill="#231F20" d="M82.498,111.167c-0.447,0-0.889-0.149-1.25-0.438l-8.969-7.177l-13.838,7.38
		c-0.62,0.331-1.368,0.312-1.971-0.05c-0.603-0.361-0.971-1.013-0.971-1.715v-56c0-1.104,0.895-2,2-2c1.104,0,2,0.896,2,2v52.667
		l12.059-6.432c0.704-0.377,1.567-0.297,2.191,0.203l9.088,7.271l8.92-3.567c0.5-0.199,1.061-0.191,1.555,0.03l8.612,3.827H114.5
		v-54c0-1.104,0.895-2,2-2c1.104,0,2,0.896,2,2v56c0,1.104-0.896,2-2,2h-15c-0.28,0-0.557-0.059-0.813-0.173l-8.228-3.657
		l-9.219,3.688C83.001,111.12,82.749,111.167,82.498,111.167z"/>
	<path fill="#231F20" d="M60.5,66.167h-3c-1.105,0-2-0.896-2-2c0-1.105,0.895-2,2-2h3c1.104,0,2,0.896,2,2
		C62.5,65.271,61.604,66.167,60.5,66.167z"/>
	<path fill="#231F20" d="M107.611,66.167h-5.89c-1.104,0-2-0.896-2-2c0-1.105,0.896-2,2-2h5.89c1.104,0,2,0.896,2,2
		C109.611,65.271,108.716,66.167,107.611,66.167z M95.833,66.167h-5.889c-1.104,0-2-0.896-2-2c0-1.105,0.896-2,2-2h5.889
		c1.104,0,2,0.896,2,2C97.833,65.271,96.937,66.167,95.833,66.167z M84.056,66.167h-5.89c-1.105,0-2-0.896-2-2c0-1.105,0.895-2,2-2
		h5.89c1.104,0,2,0.896,2,2C86.056,65.271,85.16,66.167,84.056,66.167z M72.277,66.167h-5.889c-1.104,0-2-0.896-2-2
		c0-1.105,0.896-2,2-2h5.889c1.104,0,2,0.896,2,2C74.277,65.271,73.382,66.167,72.277,66.167z"/>
	<path fill="#231F20" d="M116.5,66.167h-3c-1.105,0-2-0.896-2-2c0-1.105,0.895-2,2-2h3c1.104,0,2,0.896,2,2
		C118.5,65.271,117.604,66.167,116.5,66.167z"/>
	<path fill="#231F20" d="M32.147,61.167H14.852c-4.054,0-7.352-3.364-7.352-7.5s3.299-7.5,7.352-7.5h17.295
		c4.054,0,7.353,3.364,7.353,7.5S36.201,61.167,32.147,61.167z M14.852,50.167c-1.849,0-3.352,1.57-3.352,3.5
		c0,1.93,1.504,3.5,3.352,3.5h17.295c1.849,0,3.353-1.57,3.353-3.5c0-1.93-1.504-3.5-3.353-3.5H14.852z"/>
	<path fill="#231F20" d="M72.5,105.167"/>
	<path fill="#231F20" d="M72.5,53.167"/>
	<path fill="#231F20" d="M82.498,112.167c-0.67,0-1.334-0.225-1.874-0.657l-8.499-6.801l-14.283,7.142
		c-0.931,0.463-2.035,0.414-2.919-0.132c-0.885-0.547-1.423-1.512-1.423-2.552v-15h-15c-10.308,0-19.174-12.88-21.627-31h-2.021
		c-4.605,0-8.352-4.262-8.352-9.5s3.747-9.5,8.352-9.5h1.898c2.243-18.123,11.154-31,21.75-31h59c12.542,0,22,17.196,22,40v56
		c0,1.657-1.343,3-3,3h-15c-0.42,0-0.835-0.088-1.219-0.259l-7.843-3.485l-8.826,3.529
		C83.252,112.096,82.874,112.167,82.498,112.167z M102.137,106.167H113.5v-53c0-20.338-8.273-34-16-34h-59
		c-7.672,0-14.725,12.409-16.057,28.251c-0.131,1.555-1.43,2.749-2.989,2.749h-4.602c-1.112,0-2.352,1.438-2.352,3.5
		s1.24,3.5,2.352,3.5h4.691c1.544,0,2.837,1.173,2.986,2.71c1.542,15.863,8.558,28.29,15.97,28.29h18c1.657,0,3,1.343,3,3v13.146
		l11.658-5.829c1.046-0.521,2.302-0.39,3.216,0.341l8.633,6.908l8.379-3.351c0.752-0.302,1.593-0.286,2.333,0.044L102.137,106.167z"
		/>
	<path fill="#231F20" d="M38.5,93.167c-1.105,0-2-0.896-2-2s0.895-2,2-2c9.215,0,17-16.486,17-36c0-19.299-7.626-35-17-35
		c-1.105,0-2-0.896-2-2s0.895-2,2-2c11.775,0,21,17.131,21,39C59.5,75.596,50.275,93.167,38.5,93.167z"/>
</g>
</svg>
