<svg xmlns="http://www.w3.org/2000/svg" width="100" height="100" viewBox="0 0 100 100" version="1.1"><path d="M 39.493 2.351 C 29.265 7.114, 22.866 18.086, 22.200 32 C 21.876 38.774, 22.221 41.763, 23.897 46.718 C 26.791 55.276, 26.688 56, 22.571 56 C 20.686 56, 18.436 56.707, 17.571 57.571 C 15.363 59.780, 15.592 64.670, 18 66.732 C 19.100 67.674, 20 69.460, 20 70.702 C 20 75.067, 23.276 81.080, 27.727 84.885 C 31.664 88.250, 32.081 88.980, 31.109 90.796 C 30.499 91.936, 30 94.473, 30 96.434 L 30 100 50 100 L 70 100 70 96.434 C 70 94.473, 69.501 91.936, 68.891 90.796 C 67.919 88.980, 68.336 88.250, 72.273 84.885 C 76.724 81.080, 80 75.067, 80 70.702 C 80 69.460, 80.900 67.674, 82 66.732 C 84.408 64.670, 84.637 59.780, 82.429 57.571 C 81.564 56.707, 79.314 56, 77.429 56 C 73.312 56, 73.209 55.276, 76.103 46.718 C 80.393 34.033, 77.415 18.237, 68.906 8.546 C 61.658 0.291, 49.442 -2.282, 39.493 2.351 M 44.534 5.223 C 38.709 6.806, 30.793 15.098, 28.488 22.032 C 25.891 29.842, 26.092 40.107, 28.971 46.750 C 30.801 50.973, 31.711 52, 33.623 52 C 35.333 52, 36 52.561, 36 54 C 36 55.695, 36.667 56, 40.368 56 L 44.737 56 40.484 51.747 C 35.706 46.969, 34.011 42.322, 34.011 34 C 34.011 25.678, 35.706 21.031, 40.484 16.253 C 44.410 12.326, 45.141 12, 50 12 C 54.859 12, 55.590 12.326, 59.516 16.253 C 64.294 21.031, 65.989 25.678, 65.989 34 C 65.989 42.322, 64.294 46.969, 59.516 51.747 L 55.263 56 59.632 56 C 63.333 56, 64 55.695, 64 54 C 64 52.561, 64.667 52, 66.377 52 C 69.957 52, 73.218 43.748, 73.277 34.539 C 73.336 25.477, 70.958 18.370, 65.972 12.706 C 59.829 5.727, 52.322 3.107, 44.534 5.223 M 48 16.714 C 47.175 17.008, 45.273 18.393, 43.773 19.790 C 36.868 26.222, 36.992 41.786, 44.002 48.502 C 51.642 55.821, 61.231 47.750, 61.231 34 C 61.231 31.376, 60.718 27.677, 60.092 25.780 C 58.196 20.034, 51.906 15.318, 48 16.714 M 21.456 61.072 C 21.081 61.678, 21.192 62.592, 21.703 63.103 C 22.244 63.644, 34.309 63.921, 50.566 63.766 C 74.611 63.537, 78.500 63.291, 78.500 62 C 78.500 60.708, 74.584 60.463, 50.319 60.235 C 30.597 60.049, 21.933 60.300, 21.456 61.072 M 24.621 70.750 C 26.308 77.785, 31.278 83.150, 37.781 84.956 C 42.578 86.288, 57.422 86.288, 62.219 84.956 C 68.722 83.150, 73.692 77.785, 75.379 70.750 L 76.038 68 50 68 L 23.962 68 24.621 70.750 M 36.035 91.934 C 33.952 95.827, 34.548 96, 50 96 C 65.452 96, 66.048 95.827, 63.965 91.934 C 63.023 90.175, 61.760 90, 50 90 C 38.240 90, 36.977 90.175, 36.035 91.934" stroke="none" fill="#000000" fill-rule="evenodd"/><path d="" stroke="none" fill="#000000" fill-rule="evenodd"/></svg>