<?xml version="1.0" encoding="UTF-8"?>
<!DOCTYPE svg PUBLIC "-//W3C//DTD SVG 1.1//EN" "http://www.w3.org/Graphics/SVG/1.1/DTD/svg11.dtd">
<!-- Creator: CorelDRAW -->
<svg xmlns="http://www.w3.org/2000/svg" xml:space="preserve" width="1.70666in" height="1.70666in" version="1.1" style="shape-rendering:geometricPrecision; text-rendering:geometricPrecision; image-rendering:optimizeQuality; fill-rule:evenodd; clip-rule:evenodd"
viewBox="0 0 1707 1707"
 xmlns:xlink="http://www.w3.org/1999/xlink">
 <defs>
  <style type="text/css">
   <![CDATA[
    .fil0 {fill:#FFFFFF}
   ]]>
  </style>
 </defs>
 <g id="Layer_x0020_1">
  <metadata id="CorelCorpID_0Corel-Layer"/>
  <path class="fil0" d="M1145 646l-84 -84 -241 241 84 84 241 -241zm-453 1061c-30,0 -59,-12 -81,-34l-577 -577c-73,-73 -21,-197 81,-197 26,0 51,8 71,24 111,-100 266,-134 408,-90l72 -71c31,-31 81,-31 112,0l9 8 739 -739c66,-66 181,-20 181,75 0,28 -11,55 -31,75l-739 739c18,19 31,34 31,65 0,21 -8,41 -23,56l-72 72c43,138 13,294 -89,408 58,75 5,186 -92,186zm-472 -752l531 532c113,-127 125,-316 34,-454 -126,-192 -391,-232 -565,-78zm-105 -9c-61,0 -91,74 -48,117l577 577c42,43 117,13 117,-49 0,-18 -7,-35 -20,-48l-577 -577c-13,-13 -30,-20 -49,-20zm527 -95l53 29c70,44 127,109 160,184l57 -56c13,-13 13,-34 0,-47l-167 -166c-12,-13 -34,-13 -46,0l-57 56zm99 546c-17,0 -29,-18 -21,-34 54,-108 33,-238 -53,-324 -21,-21 12,-54 33,-33 100,100 125,252 62,378 -4,9 -13,13 -21,13zm353 -868l84 84 233 -233 -84 -84 -233 233zm350 -182l199 -199c55,-55 -29,-139 -84,-84l-199 199 84 84z"/>
 </g>
</svg>
