<?xml version="1.0" encoding="utf-8"?>
<!-- Generator: Adobe Illustrator 23.0.4, SVG Export Plug-In . SVG Version: 6.00 Build 0)  -->
<svg version="1.1" id="Icons" xmlns="http://www.w3.org/2000/svg" xmlns:xlink="http://www.w3.org/1999/xlink" x="0px" y="0px"
	 viewBox="0 0 32 32" style="enable-background:new 0 0 32 32;" xml:space="preserve">
<style type="text/css">
	.st0{fill:none;stroke:#000000;stroke-width:2;stroke-linecap:round;stroke-linejoin:round;stroke-miterlimit:10;}
	.st1{fill:none;stroke:#000000;stroke-width:2;stroke-linejoin:round;stroke-miterlimit:10;}
</style>
<line class="st0" x1="16" y1="3" x2="16" y2="5"/>
<path class="st0" d="M16,18v8v0.5c0,1.38-1.12,2.5-2.5,2.5S11,27.88,11,26.5"/>
<path class="st0" d="M27,11c0,2.21-1.79,4-4,4s-4-1.79-4-4s4-8,4-8S27,8.79,27,11z"/>
<path class="st0" d="M21.08,6.03C19.52,5.37,17.8,5,16,5C8.82,5,3,10.82,3,18h26c0-2.45-0.68-4.75-1.86-6.71"/>
</svg>
